solid OpenSCAD_Model
  facet normal 0 -1 0
    outer loop
      vertex -0.6617387872822835 11 -11.486289650954788
      vertex -8 11 -1.9
      vertex -8 11 -2
    endloop
  endfacet
  facet normal 0 1 0
    outer loop
      vertex -0.6617387872822835 13 -11.486289650954788
      vertex -8 13 -2
      vertex -8 13 -1.9
    endloop
  endfacet
  facet normal -0.77714596145697 0 -0.6293203910498385
    outer loop
      vertex -3.618033988749895 11 -11.175570504584947
      vertex -3.4862896509547885 13 -11.338261212717716
      vertex -3.4862896509547885 11 -11.338261212717716
    endloop
  endfacet
  facet normal -0.77714596145697 0 -0.6293203910498385
    outer loop
      vertex -3.618033988749895 11 -11.175570504584947
      vertex -3.618033988749895 13 -11.175570504584947
      vertex -3.4862896509547885 13 -11.338261212717716
    endloop
  endfacet
  facet normal -0.544639035015025 0 -0.8386705679454253
    outer loop
      vertex -3.1755705045849463 11 -11.618033988749895
      vertex -3.1755705045849463 13 -11.618033988749895
      vertex -3 11 -11.732050807568877
    endloop
  endfacet
  facet normal -0.6293203910498387 0 -0.7771459614569698
    outer loop
      vertex -3.1755705045849463 11 -11.618033988749895
      vertex -3.3382612127177165 13 -11.486289650954788
      vertex -3.1755705045849463 13 -11.618033988749895
    endloop
  endfacet
  facet normal -0.45399049973955097 0 -0.8910065241883658
    outer loop
      vertex -2.8134732861516003 11 -11.827090915285202
      vertex -3 13 -11.732050807568877
      vertex -2.8134732861516003 13 -11.827090915285202
    endloop
  endfacet
  facet normal -0.45399049973955097 0 -0.8910065241883658
    outer loop
      vertex -2.8134732861516003 11 -11.827090915285202
      vertex -3 11 -11.732050807568877
      vertex -3 13 -11.732050807568877
    endloop
  endfacet
  facet normal -0.544639035015025 0 -0.8386705679454253
    outer loop
      vertex -3.1755705045849463 13 -11.618033988749895
      vertex -3 13 -11.732050807568877
      vertex -3 11 -11.732050807568877
    endloop
  endfacet
  facet normal -0.6293203910498387 0 -0.7771459614569698
    outer loop
      vertex -3.1755705045849463 11 -11.618033988749895
      vertex -3.3382612127177165 11 -11.486289650954788
      vertex -3.3382612127177165 13 -11.486289650954788
    endloop
  endfacet
  facet normal -0.7071067811865465 0 -0.7071067811865486
    outer loop
      vertex -3.4862896509547885 11 -11.338261212717716
      vertex -3.3382612127177165 13 -11.486289650954788
      vertex -3.3382612127177165 11 -11.486289650954788
    endloop
  endfacet
  facet normal -0.7071067811865465 0 -0.7071067811865486
    outer loop
      vertex -3.4862896509547885 11 -11.338261212717716
      vertex -3.4862896509547885 13 -11.338261212717716
      vertex -3.3382612127177165 13 -11.486289650954788
    endloop
  endfacet
  facet normal -0.8910065241883683 0 -0.4539904997395459
    outer loop
      vertex -3.8270909152852015 11 -10.8134732861516
      vertex -3.8270909152852015 13 -10.8134732861516
      vertex -3.732050807568877 11 -11
    endloop
  endfacet
  facet normal -0.8386705679454249 0 -0.5446390350150255
    outer loop
      vertex -3.618033988749895 11 -11.175570504584947
      vertex -3.732050807568877 11 -11
      vertex -3.732050807568877 13 -11
    endloop
  endfacet
  facet normal -0.8386705679454249 0 -0.5446390350150255
    outer loop
      vertex -3.618033988749895 11 -11.175570504584947
      vertex -3.732050807568877 13 -11
      vertex -3.618033988749895 13 -11.175570504584947
    endloop
  endfacet
  facet normal -0.8910065241883683 0 -0.4539904997395459
    outer loop
      vertex -3.8270909152852015 13 -10.8134732861516
      vertex -3.732050807568877 13 -11
      vertex -3.732050807568877 11 -11
    endloop
  endfacet
  facet normal -0.3583679495452986 0 -0.9335804264972024
    outer loop
      vertex -2.8134732861516003 11 -11.827090915285202
      vertex -2.618033988749895 13 -11.902113032590307
      vertex -2.618033988749895 11 -11.902113032590307
    endloop
  endfacet
  facet normal -0.3583679495452986 0 -0.9335804264972024
    outer loop
      vertex -2.8134732861516003 11 -11.827090915285202
      vertex -2.8134732861516003 13 -11.827090915285202
      vertex -2.618033988749895 13 -11.902113032590307
    endloop
  endfacet
  facet normal -0.2588190451025207 0 -0.9659258262890683
    outer loop
      vertex -2.618033988749895 11 -11.902113032590307
      vertex -2.618033988749895 13 -11.902113032590307
      vertex -2.415823381635519 11 -11.956295201467611
    endloop
  endfacet
  facet normal -0.2588190451025207 0 -0.9659258262890683
    outer loop
      vertex -2.415823381635519 11 -11.956295201467611
      vertex -2.618033988749895 13 -11.902113032590307
      vertex -2.415823381635519 13 -11.956295201467611
    endloop
  endfacet
  facet normal -0.156434465040232 0 -0.9876883405951374
    outer loop
      vertex -2.415823381635519 11 -11.956295201467611
      vertex -2.209056926535307 13 -11.989043790736547
      vertex -2.209056926535307 11 -11.989043790736547
    endloop
  endfacet
  facet normal -0.156434465040232 0 -0.9876883405951374
    outer loop
      vertex -2.415823381635519 11 -11.956295201467611
      vertex -2.415823381635519 13 -11.956295201467611
      vertex -2.209056926535307 13 -11.989043790736547
    endloop
  endfacet
  facet normal -0.05233595624294214 0 -0.9986295347545739
    outer loop
      vertex -2.209056926535307 11 -11.989043790736547
      vertex -2 13 -12
      vertex -2 11 -12
    endloop
  endfacet
  facet normal -0.05233595624294214 0 -0.9986295347545739
    outer loop
      vertex -2.209056926535307 11 -11.989043790736547
      vertex -2.209056926535307 13 -11.989043790736547
      vertex -2 13 -12
    endloop
  endfacet
  facet normal 0 -1 0
    outer loop
      vertex -3.1755705045849463 11 -11.618033988749895
      vertex -3 11 -11.732050807568877
      vertex -0.6617387872822835 11 -11.486289650954788
    endloop
  endfacet
  facet normal 0 -1 0
    outer loop
      vertex -2.8134732861516003 11 -11.827090915285202
      vertex -0.6617387872822835 11 -11.486289650954788
      vertex -3 11 -11.732050807568877
    endloop
  endfacet
  facet normal 0 1 0
    outer loop
      vertex -3.1755705045849463 13 -11.618033988749895
      vertex -0.6617387872822835 13 -11.486289650954788
      vertex -3 13 -11.732050807568877
    endloop
  endfacet
  facet normal 0 1 0
    outer loop
      vertex -2.8134732861516003 13 -11.827090915285202
      vertex -3 13 -11.732050807568877
      vertex -0.6617387872822835 13 -11.486289650954788
    endloop
  endfacet
  facet normal 0 -1 0
    outer loop
      vertex -3.4862896509547885 11 -11.338261212717716
      vertex -3.3382612127177165 11 -11.486289650954788
      vertex -0.6617387872822835 11 -11.486289650954788
    endloop
  endfacet
  facet normal 0 -1 0
    outer loop
      vertex -3.618033988749895 11 -11.175570504584947
      vertex -3.4862896509547885 11 -11.338261212717716
      vertex -0.6617387872822835 11 -11.486289650954788
    endloop
  endfacet
  facet normal 0 -1 0
    outer loop
      vertex -3.618033988749895 11 -11.175570504584947
      vertex -0.6617387872822835 11 -11.486289650954788
      vertex -3.732050807568877 11 -11
    endloop
  endfacet
  facet normal 0 1 0
    outer loop
      vertex -3.4862896509547885 13 -11.338261212717716
      vertex -0.6617387872822835 13 -11.486289650954788
      vertex -3.3382612127177165 13 -11.486289650954788
    endloop
  endfacet
  facet normal 0 1 0
    outer loop
      vertex -3.618033988749895 13 -11.175570504584947
      vertex -0.6617387872822835 13 -11.486289650954788
      vertex -3.4862896509547885 13 -11.338261212717716
    endloop
  endfacet
  facet normal 0 1 0
    outer loop
      vertex -3.618033988749895 13 -11.175570504584947
      vertex -3.732050807568877 13 -11
      vertex -0.6617387872822835 13 -11.486289650954788
    endloop
  endfacet
  facet normal 0 -1 0
    outer loop
      vertex -3.1755705045849463 11 -11.618033988749895
      vertex -0.6617387872822835 11 -11.486289650954788
      vertex -3.3382612127177165 11 -11.486289650954788
    endloop
  endfacet
  facet normal 0 1 0
    outer loop
      vertex -3.1755705045849463 13 -11.618033988749895
      vertex -3.3382612127177165 13 -11.486289650954788
      vertex -0.6617387872822835 13 -11.486289650954788
    endloop
  endfacet
  facet normal 0 -1 0
    outer loop
      vertex -2.618033988749895 11 -11.902113032590307
      vertex -2.415823381635519 11 -11.956295201467611
      vertex -0.6617387872822835 11 -11.486289650954788
    endloop
  endfacet
  facet normal 0.05233595624294214 0 -0.9986295347545739
    outer loop
      vertex -2 11 -12
      vertex -2 13 -12
      vertex -1.790943073464693 13 -11.989043790736547
    endloop
  endfacet
  facet normal 0.05233595624294214 0 -0.9986295347545739
    outer loop
      vertex -2 11 -12
      vertex -1.790943073464693 13 -11.989043790736547
      vertex -1.790943073464693 11 -11.989043790736547
    endloop
  endfacet
  facet normal 0 -1 0
    outer loop
      vertex -2.415823381635519 11 -11.956295201467611
      vertex -2.209056926535307 11 -11.989043790736547
      vertex -0.6617387872822835 11 -11.486289650954788
    endloop
  endfacet
  facet normal 0.156434465040232 0 -0.9876883405951374
    outer loop
      vertex -1.790943073464693 11 -11.989043790736547
      vertex -1.790943073464693 13 -11.989043790736547
      vertex -1.5841766183644812 13 -11.956295201467611
    endloop
  endfacet
  facet normal 0 -1 0
    outer loop
      vertex -2.8134732861516003 11 -11.827090915285202
      vertex -2.618033988749895 11 -11.902113032590307
      vertex -0.6617387872822835 11 -11.486289650954788
    endloop
  endfacet
  facet normal 0 1 0
    outer loop
      vertex -2.618033988749895 13 -11.902113032590307
      vertex -0.6617387872822835 13 -11.486289650954788
      vertex -2.415823381635519 13 -11.956295201467611
    endloop
  endfacet
  facet normal 0 1 0
    outer loop
      vertex -2.415823381635519 13 -11.956295201467611
      vertex -0.6617387872822835 13 -11.486289650954788
      vertex -2.209056926535307 13 -11.989043790736547
    endloop
  endfacet
  facet normal 0 1 0
    outer loop
      vertex -2.8134732861516003 13 -11.827090915285202
      vertex -0.6617387872822835 13 -11.486289650954788
      vertex -2.618033988749895 13 -11.902113032590307
    endloop
  endfacet
  facet normal 0.156434465040232 0 -0.9876883405951374
    outer loop
      vertex -1.790943073464693 11 -11.989043790736547
      vertex -1.5841766183644812 13 -11.956295201467611
      vertex -1.5841766183644812 11 -11.956295201467611
    endloop
  endfacet
  facet normal 0 -1 0
    outer loop
      vertex -2.209056926535307 11 -11.989043790736547
      vertex -2 11 -12
      vertex -0.6617387872822835 11 -11.486289650954788
    endloop
  endfacet
  facet normal 0.2588190451025207 0 -0.9659258262890683
    outer loop
      vertex -1.5841766183644812 11 -11.956295201467611
      vertex -1.5841766183644812 13 -11.956295201467611
      vertex -1.381966011250105 11 -11.902113032590307
    endloop
  endfacet
  facet normal 0 -1 0
    outer loop
      vertex -2 11 -12
      vertex -1.790943073464693 11 -11.989043790736547
      vertex -0.6617387872822835 11 -11.486289650954788
    endloop
  endfacet
  facet normal 0.2588190451025207 0 -0.9659258262890683
    outer loop
      vertex -1.381966011250105 11 -11.902113032590307
      vertex -1.5841766183644812 13 -11.956295201467611
      vertex -1.381966011250105 13 -11.902113032590307
    endloop
  endfacet
  facet normal 0 1 0
    outer loop
      vertex -2.209056926535307 13 -11.989043790736547
      vertex -0.6617387872822835 13 -11.486289650954788
      vertex -2 13 -12
    endloop
  endfacet
  facet normal 0 1 0
    outer loop
      vertex -2 13 -12
      vertex -0.6617387872822835 13 -11.486289650954788
      vertex -1.790943073464693 13 -11.989043790736547
    endloop
  endfacet
  facet normal 0 -1 0
    outer loop
      vertex -3.8270909152852015 11 -10.8134732861516
      vertex -3.732050807568877 11 -11
      vertex -0.6617387872822835 11 -11.486289650954788
    endloop
  endfacet
  facet normal 0 1 0
    outer loop
      vertex -3.8270909152852015 13 -10.8134732861516
      vertex -0.6617387872822835 13 -11.486289650954788
      vertex -3.732050807568877 13 -11
    endloop
  endfacet
  facet normal 0 -1 0
    outer loop
      vertex -1.790943073464693 11 -11.989043790736547
      vertex -1.5841766183644812 11 -11.956295201467611
      vertex -0.6617387872822835 11 -11.486289650954788
    endloop
  endfacet
  facet normal 0 -1 0
    outer loop
      vertex -1.5841766183644812 11 -11.956295201467611
      vertex -1.381966011250105 11 -11.902113032590307
      vertex -0.6617387872822835 11 -11.486289650954788
    endloop
  endfacet
  facet normal 0.3583679495452986 0 -0.9335804264972024
    outer loop
      vertex -1.381966011250105 11 -11.902113032590307
      vertex -1.1865267138483997 13 -11.827090915285202
      vertex -1.1865267138483997 11 -11.827090915285202
    endloop
  endfacet
  facet normal 0.3583679495452986 0 -0.9335804264972024
    outer loop
      vertex -1.381966011250105 11 -11.902113032590307
      vertex -1.381966011250105 13 -11.902113032590307
      vertex -1.1865267138483997 13 -11.827090915285202
    endloop
  endfacet
  facet normal 0.45399049973955097 0 -0.8910065241883658
    outer loop
      vertex -1.1865267138483997 11 -11.827090915285202
      vertex -1.1865267138483997 13 -11.827090915285202
      vertex -1 13 -11.732050807568877
    endloop
  endfacet
  facet normal 0 -1 0
    outer loop
      vertex -1.381966011250105 11 -11.902113032590307
      vertex -1.1865267138483997 11 -11.827090915285202
      vertex -0.6617387872822835 11 -11.486289650954788
    endloop
  endfacet
  facet normal 0.45399049973955097 0 -0.8910065241883658
    outer loop
      vertex -1.1865267138483997 11 -11.827090915285202
      vertex -1 13 -11.732050807568877
      vertex -1 11 -11.732050807568877
    endloop
  endfacet
  facet normal 0 1 0
    outer loop
      vertex -1.790943073464693 13 -11.989043790736547
      vertex -0.6617387872822835 13 -11.486289650954788
      vertex -1.5841766183644812 13 -11.956295201467611
    endloop
  endfacet
  facet normal 0 1 0
    outer loop
      vertex -1.5841766183644812 13 -11.956295201467611
      vertex -0.6617387872822835 13 -11.486289650954788
      vertex -1.381966011250105 13 -11.902113032590307
    endloop
  endfacet
  facet normal 0 1 0
    outer loop
      vertex -1.381966011250105 13 -11.902113032590307
      vertex -0.6617387872822835 13 -11.486289650954788
      vertex -1.1865267138483997 13 -11.827090915285202
    endloop
  endfacet
  facet normal 0 -1 0
    outer loop
      vertex -1.1865267138483997 11 -11.827090915285202
      vertex -1 11 -11.732050807568877
      vertex -0.6617387872822835 11 -11.486289650954788
    endloop
  endfacet
  facet normal 0.544639035015025 0 -0.8386705679454253
    outer loop
      vertex -1 11 -11.732050807568877
      vertex -1 13 -11.732050807568877
      vertex -0.8244294954150537 11 -11.618033988749895
    endloop
  endfacet
  facet normal 0.544639035015025 0 -0.8386705679454253
    outer loop
      vertex -0.8244294954150537 11 -11.618033988749895
      vertex -1 13 -11.732050807568877
      vertex -0.8244294954150537 13 -11.618033988749895
    endloop
  endfacet
  facet normal 0 -1 0
    outer loop
      vertex -1 11 -11.732050807568877
      vertex -0.8244294954150537 11 -11.618033988749895
      vertex -0.6617387872822835 11 -11.486289650954788
    endloop
  endfacet
  facet normal 0.6293203910498387 0 -0.7771459614569698
    outer loop
      vertex -0.8244294954150537 11 -11.618033988749895
      vertex -0.8244294954150537 13 -11.618033988749895
      vertex -0.6617387872822835 13 -11.486289650954788
    endloop
  endfacet
  facet normal 0 1 0
    outer loop
      vertex -1.1865267138483997 13 -11.827090915285202
      vertex -0.6617387872822835 13 -11.486289650954788
      vertex -1 13 -11.732050807568877
    endloop
  endfacet
  facet normal 0 1 0
    outer loop
      vertex -1 13 -11.732050807568877
      vertex -0.6617387872822835 13 -11.486289650954788
      vertex -0.8244294954150537 13 -11.618033988749895
    endloop
  endfacet
  facet normal 0.6293203910498387 0 -0.7771459614569698
    outer loop
      vertex -0.8244294954150537 11 -11.618033988749895
      vertex -0.6617387872822835 13 -11.486289650954788
      vertex -0.6617387872822835 11 -11.486289650954788
    endloop
  endfacet
  facet normal 0.7071067811865465 0 -0.7071067811865486
    outer loop
      vertex -0.6617387872822835 11 -11.486289650954788
      vertex -0.6617387872822835 13 -11.486289650954788
      vertex -0.5137103490452115 11 -11.338261212717716
    endloop
  endfacet
  facet normal 0.7071067811865465 0 -0.7071067811865486
    outer loop
      vertex -0.5137103490452115 11 -11.338261212717716
      vertex -0.6617387872822835 13 -11.486289650954788
      vertex -0.5137103490452115 13 -11.338261212717716
    endloop
  endfacet
  facet normal 0 -1 0
    outer loop
      vertex -0.6617387872822835 11 -11.486289650954788
      vertex -0.5137103490452115 11 -11.338261212717716
      vertex -0.3819660112501051 11 -11.175570504584947
    endloop
  endfacet
  facet normal 0 -1 0
    outer loop
      vertex -0.6617387872822835 11 -11.486289650954788
      vertex -0.3819660112501051 11 -11.175570504584947
      vertex -0.2679491924311228 11 -11
    endloop
  endfacet
  facet normal 0.77714596145697 0 -0.6293203910498385
    outer loop
      vertex -0.5137103490452115 11 -11.338261212717716
      vertex -0.3819660112501051 13 -11.175570504584947
      vertex -0.3819660112501051 11 -11.175570504584947
    endloop
  endfacet
  facet normal 0.77714596145697 0 -0.6293203910498385
    outer loop
      vertex -0.5137103490452115 11 -11.338261212717716
      vertex -0.5137103490452115 13 -11.338261212717716
      vertex -0.3819660112501051 13 -11.175570504584947
    endloop
  endfacet
  facet normal 0 1 0
    outer loop
      vertex -0.6617387872822835 13 -11.486289650954788
      vertex -0.3819660112501051 13 -11.175570504584947
      vertex -0.5137103490452115 13 -11.338261212717716
    endloop
  endfacet
  facet normal 0 1 0
    outer loop
      vertex -0.6617387872822835 13 -11.486289650954788
      vertex -0.2679491924311228 13 -11
      vertex -0.3819660112501051 13 -11.175570504584947
    endloop
  endfacet
  facet normal 0 -1 0
    outer loop
      vertex -0.6617387872822835 11 -11.486289650954788
      vertex -0.2679491924311228 11 -11
      vertex -0.17290908471479827 11 -10.8134732861516
    endloop
  endfacet
  facet normal 0.8386705679454249 0 -0.5446390350150255
    outer loop
      vertex -0.3819660112501051 11 -11.175570504584947
      vertex -0.3819660112501051 13 -11.175570504584947
      vertex -0.2679491924311228 11 -11
    endloop
  endfacet
  facet normal 0 1 0
    outer loop
      vertex -0.6617387872822835 13 -11.486289650954788
      vertex -0.17290908471479827 13 -10.8134732861516
      vertex -0.2679491924311228 13 -11
    endloop
  endfacet
  facet normal 0 -1 0
    outer loop
      vertex -0.6617387872822835 11 -11.486289650954788
      vertex -0.17290908471479827 11 -10.8134732861516
      vertex -0.09788696740969294 11 -10.618033988749895
    endloop
  endfacet
  facet normal 0.8386705679454249 0 -0.5446390350150255
    outer loop
      vertex -0.3819660112501051 13 -11.175570504584947
      vertex -0.2679491924311228 13 -11
      vertex -0.2679491924311228 11 -11
    endloop
  endfacet
  facet normal 0.8910065241883679 0 -0.45399049973954675
    outer loop
      vertex -0.2679491924311228 11 -11
      vertex -0.2679491924311228 13 -11
      vertex -0.17290908471479827 13 -10.8134732861516
    endloop
  endfacet
  facet normal 0 -1 0
    outer loop
      vertex -0.6617387872822835 11 -11.486289650954788
      vertex -0.09788696740969294 11 -10.618033988749895
      vertex -0.04370479853238862 11 -10.41582338163552
    endloop
  endfacet
  facet normal 0.8910065241883679 0 -0.45399049973954675
    outer loop
      vertex -0.2679491924311228 11 -11
      vertex -0.17290908471479827 13 -10.8134732861516
      vertex -0.17290908471479827 11 -10.8134732861516
    endloop
  endfacet
  facet normal 0 -1 0
    outer loop
      vertex -0.6617387872822835 11 -11.486289650954788
      vertex -0.04370479853238862 11 -10.41582338163552
      vertex -0.01095620926345342 11 -10.209056926535307
    endloop
  endfacet
  facet normal 0.9335804264972016 0 -0.35836794954530043
    outer loop
      vertex -0.17290908471479827 11 -10.8134732861516
      vertex -0.17290908471479827 13 -10.8134732861516
      vertex -0.09788696740969294 13 -10.618033988749895
    endloop
  endfacet
  facet normal 0 1 0
    outer loop
      vertex -0.6617387872822835 13 -11.486289650954788
      vertex -0.09788696740969294 13 -10.618033988749895
      vertex -0.17290908471479827 13 -10.8134732861516
    endloop
  endfacet
  facet normal 0 1 0
    outer loop
      vertex -0.6617387872822835 13 -11.486289650954788
      vertex -0.04370479853238862 13 -10.41582338163552
      vertex -0.09788696740969294 13 -10.618033988749895
    endloop
  endfacet
  facet normal 0 1 0
    outer loop
      vertex -0.6617387872822835 13 -11.486289650954788
      vertex -0.01095620926345342 13 -10.209056926535307
      vertex -0.04370479853238862 13 -10.41582338163552
    endloop
  endfacet
  facet normal 0 -1 0
    outer loop
      vertex -0.6617387872822835 11 -11.486289650954788
      vertex -0.01095620926345342 11 -10.209056926535307
      vertex 0 11 -10
    endloop
  endfacet
  facet normal 0.9335804264972016 0 -0.35836794954530043
    outer loop
      vertex -0.17290908471479827 11 -10.8134732861516
      vertex -0.09788696740969294 13 -10.618033988749895
      vertex -0.09788696740969294 11 -10.618033988749895
    endloop
  endfacet
  facet normal 0.965925826289068 0 -0.25881904510252224
    outer loop
      vertex -0.09788696740969294 11 -10.618033988749895
      vertex -0.09788696740969294 13 -10.618033988749895
      vertex -0.04370479853238862 11 -10.41582338163552
    endloop
  endfacet
  facet normal 0.965925826289068 0 -0.25881904510252224
    outer loop
      vertex -0.04370479853238862 11 -10.41582338163552
      vertex -0.09788696740969294 13 -10.618033988749895
      vertex -0.04370479853238862 13 -10.41582338163552
    endloop
  endfacet
  facet normal 0.9876883405951379 0 -0.15643446504022995
    outer loop
      vertex -0.04370479853238862 11 -10.41582338163552
      vertex -0.01095620926345342 13 -10.209056926535307
      vertex -0.01095620926345342 11 -10.209056926535307
    endloop
  endfacet
  facet normal 0.9876883405951379 0 -0.15643446504022995
    outer loop
      vertex -0.04370479853238862 11 -10.41582338163552
      vertex -0.04370479853238862 13 -10.41582338163552
      vertex -0.01095620926345342 13 -10.209056926535307
    endloop
  endfacet
  facet normal 0 1 0
    outer loop
      vertex -0.6617387872822835 13 -11.486289650954788
      vertex 0 13 -10
      vertex -0.01095620926345342 13 -10.209056926535307
    endloop
  endfacet
  facet normal 0 -1 0
    outer loop
      vertex -0.6617387872822835 11 -11.486289650954788
      vertex -2.4 11 -8.69282032302755
      vertex -2.4702282018339785 11 -8.647213595499958
    endloop
  endfacet
  facet normal 0 -1 0
    outer loop
      vertex -0.6617387872822835 11 -11.486289650954788
      vertex -2.247213595499958 11 -8.760845213036124
      vertex -2.32538931446064 11 -8.730836366114081
    endloop
  endfacet
  facet normal 0 -1 0
    outer loop
      vertex -0.6617387872822835 11 -11.486289650954788
      vertex -2.32538931446064 11 -8.730836366114081
      vertex -2.4 11 -8.69282032302755
    endloop
  endfacet
  facet normal 0 -1 0
    outer loop
      vertex -0.6617387872822835 11 -11.486289650954788
      vertex -2.5353044850870865 11 -8.594515860381915
      vertex -2.5945158603819154 11 -8.535304485087087
    endloop
  endfacet
  facet normal 0 -1 0
    outer loop
      vertex -0.6617387872822835 11 -11.486289650954788
      vertex -2.4702282018339785 11 -8.647213595499958
      vertex -2.5353044850870865 11 -8.594515860381915
    endloop
  endfacet
  facet normal 0 1 0
    outer loop
      vertex -0.6617387872822835 13 -11.486289650954788
      vertex -2.4702282018339785 13 -8.647213595499958
      vertex -2.4 13 -8.69282032302755
    endloop
  endfacet
  facet normal 0 1 0
    outer loop
      vertex -0.6617387872822835 13 -11.486289650954788
      vertex -2.32538931446064 13 -8.730836366114081
      vertex -2.247213595499958 13 -8.760845213036124
    endloop
  endfacet
  facet normal 0 1 0
    outer loop
      vertex -0.6617387872822835 13 -11.486289650954788
      vertex -2.4 13 -8.69282032302755
      vertex -2.32538931446064 13 -8.730836366114081
    endloop
  endfacet
  facet normal 0 1 0
    outer loop
      vertex -0.6617387872822835 13 -11.486289650954788
      vertex -2.5945158603819154 13 -8.535304485087087
      vertex -2.5353044850870865 13 -8.594515860381915
    endloop
  endfacet
  facet normal 0 1 0
    outer loop
      vertex -0.6617387872822835 13 -11.486289650954788
      vertex -2.5353044850870865 13 -8.594515860381915
      vertex -2.4702282018339785 13 -8.647213595499958
    endloop
  endfacet
  facet normal 0 -1 0
    outer loop
      vertex -0.6617387872822835 11 -11.486289650954788
      vertex -2.1663293526542073 11 -8.782518080587044
      vertex -2.247213595499958 11 -8.760845213036124
    endloop
  endfacet
  facet normal 0 -1 0
    outer loop
      vertex -0.6617387872822835 11 -11.486289650954788
      vertex -2.083622770614123 11 -8.79561751629462
      vertex -2.1663293526542073 11 -8.782518080587044
    endloop
  endfacet
  facet normal 0 -1 0
    outer loop
      vertex -0.6617387872822835 11 -11.486289650954788
      vertex -2 11 -8.8
      vertex -2.083622770614123 11 -8.79561751629462
    endloop
  endfacet
  facet normal 0 -1 0
    outer loop
      vertex -0.6617387872822835 11 -11.486289650954788
      vertex -1.9163772293858772 11 -8.79561751629462
      vertex -2 11 -8.8
    endloop
  endfacet
  facet normal 0 -1 0
    outer loop
      vertex -0.6617387872822835 11 -11.486289650954788
      vertex -1.8336706473457924 11 -8.782518080587044
      vertex -1.9163772293858772 11 -8.79561751629462
    endloop
  endfacet
  facet normal 0 -1 0
    outer loop
      vertex -0.6617387872822835 11 -11.486289650954788
      vertex -1.752786404500042 11 -8.760845213036124
      vertex -1.8336706473457924 11 -8.782518080587044
    endloop
  endfacet
  facet normal 0 1 0
    outer loop
      vertex -0.6617387872822835 13 -11.486289650954788
      vertex -2.247213595499958 13 -8.760845213036124
      vertex -2.1663293526542073 13 -8.782518080587044
    endloop
  endfacet
  facet normal 0 1 0
    outer loop
      vertex -0.6617387872822835 13 -11.486289650954788
      vertex -2.1663293526542073 13 -8.782518080587044
      vertex -2.083622770614123 13 -8.79561751629462
    endloop
  endfacet
  facet normal 0 1 0
    outer loop
      vertex -0.6617387872822835 13 -11.486289650954788
      vertex -2.083622770614123 13 -8.79561751629462
      vertex -2 13 -8.8
    endloop
  endfacet
  facet normal 0 1 0
    outer loop
      vertex -0.6617387872822835 13 -11.486289650954788
      vertex -2 13 -8.8
      vertex -1.9163772293858772 13 -8.79561751629462
    endloop
  endfacet
  facet normal 0 1 0
    outer loop
      vertex -0.6617387872822835 13 -11.486289650954788
      vertex -1.9163772293858772 13 -8.79561751629462
      vertex -1.8336706473457924 13 -8.782518080587044
    endloop
  endfacet
  facet normal 0 1 0
    outer loop
      vertex -0.6617387872822835 13 -11.486289650954788
      vertex -1.8336706473457924 13 -8.782518080587044
      vertex -1.752786404500042 13 -8.760845213036124
    endloop
  endfacet
  facet normal 0 -1 0
    outer loop
      vertex -0.6617387872822835 11 -11.486289650954788
      vertex -1.6746106855393599 11 -8.730836366114081
      vertex -1.752786404500042 11 -8.760845213036124
    endloop
  endfacet
  facet normal 0 -1 0
    outer loop
      vertex -0.6617387872822835 11 -11.486289650954788
      vertex -1.6 11 -8.69282032302755
      vertex -1.6746106855393599 11 -8.730836366114081
    endloop
  endfacet
  facet normal 0 -1 0
    outer loop
      vertex -0.6617387872822835 11 -11.486289650954788
      vertex -1.5297717981660215 11 -8.647213595499958
      vertex -1.6 11 -8.69282032302755
    endloop
  endfacet
  facet normal 0 -1 0
    outer loop
      vertex -0.6617387872822835 11 -11.486289650954788
      vertex -1.4646955149129135 11 -8.594515860381915
      vertex -1.5297717981660215 11 -8.647213595499958
    endloop
  endfacet
  facet normal 0 -1 0
    outer loop
      vertex -0.6617387872822835 11 -11.486289650954788
      vertex -1.4054841396180846 11 -8.535304485087087
      vertex -1.4646955149129135 11 -8.594515860381915
    endloop
  endfacet
  facet normal 0 -1 0
    outer loop
      vertex -0.6617387872822835 11 -11.486289650954788
      vertex -1.352786404500042 11 -8.47022820183398
      vertex -1.4054841396180846 11 -8.535304485087087
    endloop
  endfacet
  facet normal 0 -1 0
    outer loop
      vertex -0.6617387872822835 11 -11.486289650954788
      vertex -1.307179676972449 11 -8.4
      vertex -1.352786404500042 11 -8.47022820183398
    endloop
  endfacet
  facet normal 0 -1 0
    outer loop
      vertex -0.6617387872822835 11 -11.486289650954788
      vertex -1.2691636338859191 11 -8.32538931446064
      vertex -1.307179676972449 11 -8.4
    endloop
  endfacet
  facet normal 0 1 0
    outer loop
      vertex -0.6617387872822835 13 -11.486289650954788
      vertex -1.752786404500042 13 -8.760845213036124
      vertex -1.6746106855393599 13 -8.730836366114081
    endloop
  endfacet
  facet normal 0 1 0
    outer loop
      vertex -0.6617387872822835 13 -11.486289650954788
      vertex -1.6746106855393599 13 -8.730836366114081
      vertex -1.6 13 -8.69282032302755
    endloop
  endfacet
  facet normal 0 1 0
    outer loop
      vertex -0.6617387872822835 13 -11.486289650954788
      vertex -1.6 13 -8.69282032302755
      vertex -1.5297717981660215 13 -8.647213595499958
    endloop
  endfacet
  facet normal 0 1 0
    outer loop
      vertex -0.6617387872822835 13 -11.486289650954788
      vertex -1.5297717981660215 13 -8.647213595499958
      vertex -1.4646955149129135 13 -8.594515860381915
    endloop
  endfacet
  facet normal 0 1 0
    outer loop
      vertex -0.6617387872822835 13 -11.486289650954788
      vertex -1.4646955149129135 13 -8.594515860381915
      vertex -1.4054841396180846 13 -8.535304485087087
    endloop
  endfacet
  facet normal 0 1 0
    outer loop
      vertex -0.6617387872822835 13 -11.486289650954788
      vertex -1.4054841396180846 13 -8.535304485087087
      vertex -1.352786404500042 13 -8.47022820183398
    endloop
  endfacet
  facet normal 0 1 0
    outer loop
      vertex -0.6617387872822835 13 -11.486289650954788
      vertex -1.352786404500042 13 -8.47022820183398
      vertex -1.307179676972449 13 -8.4
    endloop
  endfacet
  facet normal 0 1 0
    outer loop
      vertex -0.6617387872822835 13 -11.486289650954788
      vertex -1.307179676972449 13 -8.4
      vertex -1.2691636338859191 13 -8.32538931446064
    endloop
  endfacet
  facet normal 0.9986295347545738 0 -0.05233595624294414
    outer loop
      vertex -0.01095620926345342 11 -10.209056926535307
      vertex -0.01095620926345342 13 -10.209056926535307
      vertex 0 11 -10
    endloop
  endfacet
  facet normal 0.9986295347545738 0 -0.05233595624294414
    outer loop
      vertex 0 11 -10
      vertex -0.01095620926345342 13 -10.209056926535307
      vertex 0 13 -10
    endloop
  endfacet
  facet normal 0 -1 0
    outer loop
      vertex -0.6617387872822835 11 -11.486289650954788
      vertex -1.2391547869638773 11 -8.247213595499957
      vertex -1.2691636338859191 11 -8.32538931446064
    endloop
  endfacet
  facet normal 0 -1 0
    outer loop
      vertex -0.6617387872822835 11 -11.486289650954788
      vertex -1.2174819194129554 11 -8.166329352654207
      vertex -1.2391547869638773 11 -8.247213595499957
    endloop
  endfacet
  facet normal 0 1 0
    outer loop
      vertex -0.6617387872822835 13 -11.486289650954788
      vertex -1.2691636338859191 13 -8.32538931446064
      vertex -1.2391547869638773 13 -8.247213595499957
    endloop
  endfacet
  facet normal 0 1 0
    outer loop
      vertex -0.6617387872822835 13 -11.486289650954788
      vertex -1.2391547869638773 13 -8.247213595499957
      vertex -1.2174819194129554 13 -8.166329352654207
    endloop
  endfacet
  facet normal 0 1 0
    outer loop
      vertex -0.6617387872822835 13 -11.486289650954788
      vertex -1.2174819194129554 13 -8.166329352654207
      vertex -1.2043824837053814 13 -8.083622770614122
    endloop
  endfacet
  facet normal 0 1 0
    outer loop
      vertex -0.6617387872822835 13 -11.486289650954788
      vertex -1.2043824837053814 13 -8.083622770614122
      vertex -1.2 13 -8
    endloop
  endfacet
  facet normal 0 1 0
    outer loop
      vertex -0.6617387872822835 13 -11.486289650954788
      vertex -1.2 13 -8
      vertex -1.2043824837053814 13 -7.916377229385877
    endloop
  endfacet
  facet normal -0.9038129694266779 0 -0.4279276998467513
    outer loop
      vertex -3.8270909152852015 11 -10.8134732861516
      vertex -8 11 -2
      vertex -3.8270909152852015 13 -10.8134732861516
    endloop
  endfacet
  facet normal 0 -1 0
    outer loop
      vertex -3.8270909152852015 11 -10.8134732861516
      vertex -0.6617387872822835 11 -11.486289650954788
      vertex -8 11 -2
    endloop
  endfacet
  facet normal 0 1 0
    outer loop
      vertex -3.8270909152852015 13 -10.8134732861516
      vertex -8 13 -2
      vertex -0.6617387872822835 13 -11.486289650954788
    endloop
  endfacet
  facet normal 0 -1 0
    outer loop
      vertex -0.6617387872822835 11 -11.486289650954788
      vertex -2.5945158603819154 11 -8.535304485087087
      vertex -8 11 -1.9
    endloop
  endfacet
  facet normal 0 1 0
    outer loop
      vertex -0.6617387872822835 13 -11.486289650954788
      vertex -8 13 -1.9
      vertex -2.5945158603819154 13 -8.535304485087087
    endloop
  endfacet
  facet normal 0 -1 0
    outer loop
      vertex -2.6928203230275507 11 -8.4
      vertex -2.730836366114081 11 -8.32538931446064
      vertex -8 11 -1.9
    endloop
  endfacet
  facet normal 0 -1 0
    outer loop
      vertex -2.7608452130361227 11 -8.247213595499957
      vertex -8 11 -1.9
      vertex -2.730836366114081 11 -8.32538931446064
    endloop
  endfacet
  facet normal 0 -1 0
    outer loop
      vertex -2.7608452130361227 11 -8.247213595499957
      vertex -2.7825180805870446 11 -8.166329352654207
      vertex -8 11 -1.9
    endloop
  endfacet
  facet normal 0 -1 0
    outer loop
      vertex -2.7825180805870446 11 -8.166329352654207
      vertex -2.7956175162946186 11 -8.083622770614122
      vertex -8 11 -1.9
    endloop
  endfacet
  facet normal 0 -1 0
    outer loop
      vertex -2.7956175162946186 11 -8.083622770614122
      vertex -2.8 11 -8
      vertex -8 11 -1.9
    endloop
  endfacet
  facet normal 0 -1 0
    outer loop
      vertex -2.8 11 -8
      vertex -2.7956175162946186 11 -7.916377229385877
      vertex -8 11 -1.9
    endloop
  endfacet
  facet normal 0 -1 0
    outer loop
      vertex -2.7956175162946186 11 -7.916377229385877
      vertex -2.7825180805870446 11 -7.833670647345793
      vertex -8 11 -1.9
    endloop
  endfacet
  facet normal 0 1 0
    outer loop
      vertex -2.6928203230275507 13 -8.4
      vertex -8 13 -1.9
      vertex -2.730836366114081 13 -8.32538931446064
    endloop
  endfacet
  facet normal 0 1 0
    outer loop
      vertex -2.7608452130361227 13 -8.247213595499957
      vertex -2.730836366114081 13 -8.32538931446064
      vertex -8 13 -1.9
    endloop
  endfacet
  facet normal 0 1 0
    outer loop
      vertex -2.7608452130361227 13 -8.247213595499957
      vertex -8 13 -1.9
      vertex -2.7825180805870446 13 -8.166329352654207
    endloop
  endfacet
  facet normal 0 1 0
    outer loop
      vertex -2.7825180805870446 13 -8.166329352654207
      vertex -8 13 -1.9
      vertex -2.7956175162946186 13 -8.083622770614122
    endloop
  endfacet
  facet normal 0 1 0
    outer loop
      vertex -2.7956175162946186 13 -8.083622770614122
      vertex -8 13 -1.9
      vertex -2.8 13 -8
    endloop
  endfacet
  facet normal 0 1 0
    outer loop
      vertex -2.8 13 -8
      vertex -8 13 -1.9
      vertex -2.7956175162946186 13 -7.916377229385877
    endloop
  endfacet
  facet normal 0 1 0
    outer loop
      vertex -2.7956175162946186 13 -7.916377229385877
      vertex -8 13 -1.9
      vertex -2.7825180805870446 13 -7.833670647345793
    endloop
  endfacet
  facet normal 0 -1 0
    outer loop
      vertex -2.5945158603819154 11 -8.535304485087087
      vertex -2.647213595499958 11 -8.47022820183398
      vertex -8 11 -1.9
    endloop
  endfacet
  facet normal 0 -1 0
    outer loop
      vertex -2.6928203230275507 11 -8.4
      vertex -8 11 -1.9
      vertex -2.647213595499958 11 -8.47022820183398
    endloop
  endfacet
  facet normal 0 1 0
    outer loop
      vertex -2.5945158603819154 13 -8.535304485087087
      vertex -8 13 -1.9
      vertex -2.647213595499958 13 -8.47022820183398
    endloop
  endfacet
  facet normal 0 1 0
    outer loop
      vertex -2.6928203230275507 13 -8.4
      vertex -2.647213595499958 13 -8.47022820183398
      vertex -8 13 -1.9
    endloop
  endfacet
  facet normal 0 -1 0
    outer loop
      vertex -2.7825180805870446 11 -7.833670647345793
      vertex -2.7608452130361227 11 -7.752786404500042
      vertex -8 11 -1.9
    endloop
  endfacet
  facet normal 0 -1 0
    outer loop
      vertex -2.7608452130361227 11 -7.752786404500042
      vertex -2.730836366114081 11 -7.67461068553936
      vertex -8 11 -1.9
    endloop
  endfacet
  facet normal 0 -1 0
    outer loop
      vertex -2.730836366114081 11 -7.67461068553936
      vertex -2.6928203230275507 11 -7.6
      vertex -8 11 -1.9
    endloop
  endfacet
  facet normal 0 1 0
    outer loop
      vertex -2.7825180805870446 13 -7.833670647345793
      vertex -8 13 -1.9
      vertex -2.7608452130361227 13 -7.752786404500042
    endloop
  endfacet
  facet normal 0 1 0
    outer loop
      vertex -2.7608452130361227 13 -7.752786404500042
      vertex -8 13 -1.9
      vertex -2.730836366114081 13 -7.67461068553936
    endloop
  endfacet
  facet normal 0 1 0
    outer loop
      vertex -2.730836366114081 13 -7.67461068553936
      vertex -8 13 -1.9
      vertex -2.6928203230275507 13 -7.6
    endloop
  endfacet
  facet normal 0 -1 0
    outer loop
      vertex -2.6928203230275507 11 -7.6
      vertex -2.647213595499958 11 -7.5297717981660215
      vertex -8 11 -1.9
    endloop
  endfacet
  facet normal 0 -1 0
    outer loop
      vertex -2.647213595499958 11 -7.5297717981660215
      vertex -2.5945158603819154 11 -7.464695514912913
      vertex -8 11 -1.9
    endloop
  endfacet
  facet normal 0 -1 0
    outer loop
      vertex -2.5945158603819154 11 -7.464695514912913
      vertex -2.5353044850870865 11 -7.405484139618085
      vertex -8 11 -1.9
    endloop
  endfacet
  facet normal 0 -1 0
    outer loop
      vertex -2.5353044850870865 11 -7.405484139618085
      vertex -2.4702282018339785 11 -7.352786404500042
      vertex -8 11 -1.9
    endloop
  endfacet
  facet normal 0 -1 0
    outer loop
      vertex -2.4702282018339785 11 -7.352786404500042
      vertex -2.4 11 -7.307179676972449
      vertex -8 11 -1.9
    endloop
  endfacet
  facet normal 0 -1 0
    outer loop
      vertex -2.4 11 -7.307179676972449
      vertex -2.32538931446064 11 -7.26916363388592
      vertex -8 11 -1.9
    endloop
  endfacet
  facet normal 0 -1 0
    outer loop
      vertex -2.32538931446064 11 -7.26916363388592
      vertex -2.247213595499958 11 -7.239154786963877
      vertex -8 11 -1.9
    endloop
  endfacet
  facet normal 0 -1 0
    outer loop
      vertex -2.247213595499958 11 -7.239154786963877
      vertex -2.1663293526542073 11 -7.217481919412956
      vertex -8 11 -1.9
    endloop
  endfacet
  facet normal 0 1 0
    outer loop
      vertex -2.6928203230275507 13 -7.6
      vertex -8 13 -1.9
      vertex -2.647213595499958 13 -7.5297717981660215
    endloop
  endfacet
  facet normal 0 1 0
    outer loop
      vertex -2.647213595499958 13 -7.5297717981660215
      vertex -8 13 -1.9
      vertex -2.5945158603819154 13 -7.464695514912913
    endloop
  endfacet
  facet normal 0 1 0
    outer loop
      vertex -2.5945158603819154 13 -7.464695514912913
      vertex -8 13 -1.9
      vertex -2.5353044850870865 13 -7.405484139618085
    endloop
  endfacet
  facet normal 0 1 0
    outer loop
      vertex -2.5353044850870865 13 -7.405484139618085
      vertex -8 13 -1.9
      vertex -2.4702282018339785 13 -7.352786404500042
    endloop
  endfacet
  facet normal 0 1 0
    outer loop
      vertex -2.4702282018339785 13 -7.352786404500042
      vertex -8 13 -1.9
      vertex -2.4 13 -7.307179676972449
    endloop
  endfacet
  facet normal 0 1 0
    outer loop
      vertex -2.4 13 -7.307179676972449
      vertex -8 13 -1.9
      vertex -2.32538931446064 13 -7.26916363388592
    endloop
  endfacet
  facet normal 0 1 0
    outer loop
      vertex -2.32538931446064 13 -7.26916363388592
      vertex -8 13 -1.9
      vertex -2.247213595499958 13 -7.239154786963877
    endloop
  endfacet
  facet normal 0 1 0
    outer loop
      vertex -2.247213595499958 13 -7.239154786963877
      vertex -8 13 -1.9
      vertex -2.1663293526542073 13 -7.217481919412956
    endloop
  endfacet
  facet normal 0 -1 0
    outer loop
      vertex -2.1663293526542073 11 -7.217481919412956
      vertex -2.083622770614123 11 -7.204382483705381
      vertex -8 11 -1.9
    endloop
  endfacet
  facet normal 0 -1 0
    outer loop
      vertex -1.9163772293858772 11 -7.204382483705381
      vertex -1.8336706473457924 11 -7.217481919412956
      vertex -8 11 -1.9
    endloop
  endfacet
  facet normal 0 1 0
    outer loop
      vertex -2.1663293526542073 13 -7.217481919412956
      vertex -8 13 -1.9
      vertex -2.083622770614123 13 -7.204382483705381
    endloop
  endfacet
  facet normal 0 -1 0
    outer loop
      vertex -2.083622770614123 11 -7.204382483705381
      vertex -2 11 -7.2
      vertex -8 11 -1.9
    endloop
  endfacet
  facet normal 0 -1 0
    outer loop
      vertex -2 11 -7.2
      vertex -1.9163772293858772 11 -7.204382483705381
      vertex -8 11 -1.9
    endloop
  endfacet
  facet normal 0 1 0
    outer loop
      vertex -2.083622770614123 13 -7.204382483705381
      vertex -8 13 -1.9
      vertex -2 13 -7.2
    endloop
  endfacet
  facet normal 0 1 0
    outer loop
      vertex -0.6617387872822835 13 -11.486289650954788
      vertex -1.5714285731011521 13 -1.9
      vertex 0 13 -10
    endloop
  endfacet
  facet normal 0 -1 0
    outer loop
      vertex -0.6617387872822835 11 -11.486289650954788
      vertex 0 11 -10
      vertex 0 11 -2
    endloop
  endfacet
  facet normal 0 1 0
    outer loop
      vertex -0.6617387872822835 13 -11.486289650954788
      vertex -1.2043824837053814 13 -7.916377229385877
      vertex -1.5714285731011521 13 -1.9
    endloop
  endfacet
  facet normal 0 -1 0
    outer loop
      vertex -0.6617387872822835 11 -11.486289650954788
      vertex 0 11 -2
      vertex -1.2174819194129554 11 -8.166329352654207
    endloop
  endfacet
  facet normal 1 0 0
    outer loop
      vertex 0 11 -10
      vertex 0 13 -10
      vertex 0 13 -2
    endloop
  endfacet
  facet normal 0 1 0
    outer loop
      vertex -1.9163772293858772 13 -7.204382483705381
      vertex -1.5714285731011521 13 -1.9
      vertex -1.8336706473457924 13 -7.217481919412956
    endloop
  endfacet
  facet normal 0 1 0
    outer loop
      vertex -1.8336706473457924 13 -7.217481919412956
      vertex -1.5714285731011521 13 -1.9
      vertex -1.752786404500042 13 -7.239154786963877
    endloop
  endfacet
  facet normal 0 1 0
    outer loop
      vertex -1.2691636338859191 13 -7.67461068553936
      vertex -1.307179676972449 13 -7.6
      vertex -1.5714285731011521 13 -1.9
    endloop
  endfacet
  facet normal 0 1 0
    outer loop
      vertex -1.307179676972449 13 -7.6
      vertex -1.352786404500042 13 -7.5297717981660215
      vertex -1.5714285731011521 13 -1.9
    endloop
  endfacet
  facet normal 0 1 0
    outer loop
      vertex -1.752786404500042 13 -7.239154786963877
      vertex -1.5714285731011521 13 -1.9
      vertex -1.6746106855393599 13 -7.26916363388592
    endloop
  endfacet
  facet normal 0 1 0
    outer loop
      vertex -1.6 13 -7.307179676972449
      vertex -1.5714285731011521 13 -1.9
      vertex -1.5297717981660215 13 -7.352786404500042
    endloop
  endfacet
  facet normal 0 1 0
    outer loop
      vertex -1.6 13 -7.307179676972449
      vertex -1.6746106855393599 13 -7.26916363388592
      vertex -1.5714285731011521 13 -1.9
    endloop
  endfacet
  facet normal 0 1 0
    outer loop
      vertex -1.5297717981660215 13 -7.352786404500042
      vertex -1.5714285731011521 13 -1.9
      vertex -1.4646955149129135 13 -7.405484139618085
    endloop
  endfacet
  facet normal 0 1 0
    outer loop
      vertex -1.4054841396180846 13 -7.464695514912913
      vertex -1.4646955149129135 13 -7.405484139618085
      vertex -1.5714285731011521 13 -1.9
    endloop
  endfacet
  facet normal 0 1 0
    outer loop
      vertex -1.4054841396180846 13 -7.464695514912913
      vertex -1.5714285731011521 13 -1.9
      vertex -1.352786404500042 13 -7.5297717981660215
    endloop
  endfacet
  facet normal 0 1 0
    outer loop
      vertex -2 13 -7.2
      vertex -1.5714285731011521 13 -1.9
      vertex -1.9163772293858772 13 -7.204382483705381
    endloop
  endfacet
  facet normal 0 1 0
    outer loop
      vertex -1.2043824837053814 13 -7.916377229385877
      vertex -1.2174819194129554 13 -7.833670647345793
      vertex -1.5714285731011521 13 -1.9
    endloop
  endfacet
  facet normal 0 -1 0
    outer loop
      vertex -1.2174819194129554 11 -8.166329352654207
      vertex 0 11 -2
      vertex -1.2043824837053814 11 -8.083622770614122
    endloop
  endfacet
  facet normal 0 -1 0
    outer loop
      vertex -1.2043824837053814 11 -8.083622770614122
      vertex 0 11 -2
      vertex -1.2 11 -8
    endloop
  endfacet
  facet normal 0 -1 0
    outer loop
      vertex -1.2043824837053814 11 -7.916377229385877
      vertex -1.2 11 -8
      vertex 0 11 -2
    endloop
  endfacet
  facet normal 0 -1 0
    outer loop
      vertex -1.2043824837053814 11 -7.916377229385877
      vertex 0 11 -2
      vertex -1.2174819194129554 11 -7.833670647345793
    endloop
  endfacet
  facet normal 0 -1 0
    outer loop
      vertex -1.6 11 -7.307179676972449
      vertex -1.5297717981660215 11 -7.352786404500042
      vertex 0 11 -2
    endloop
  endfacet
  facet normal 0 -1 0
    outer loop
      vertex -1.752786404500042 11 -7.239154786963877
      vertex -1.6746106855393599 11 -7.26916363388592
      vertex 0 11 -2
    endloop
  endfacet
  facet normal 0 -1 0
    outer loop
      vertex -1.8336706473457924 11 -7.217481919412956
      vertex -1.752786404500042 11 -7.239154786963877
      vertex 0 11 -2
    endloop
  endfacet
  facet normal 0 -1 0
    outer loop
      vertex -1.6 11 -7.307179676972449
      vertex 0 11 -2
      vertex -1.6746106855393599 11 -7.26916363388592
    endloop
  endfacet
  facet normal 0 1 0
    outer loop
      vertex -1.2174819194129554 13 -7.833670647345793
      vertex -1.2391547869638773 13 -7.752786404500042
      vertex -1.5714285731011521 13 -1.9
    endloop
  endfacet
  facet normal 0 1 0
    outer loop
      vertex -1.2391547869638773 13 -7.752786404500042
      vertex -1.2691636338859191 13 -7.67461068553936
      vertex -1.5714285731011521 13 -1.9
    endloop
  endfacet
  facet normal 0 -1 0
    outer loop
      vertex -1.4054841396180846 11 -7.464695514912913
      vertex -1.352786404500042 11 -7.5297717981660215
      vertex 0 11 -2
    endloop
  endfacet
  facet normal 0 -1 0
    outer loop
      vertex -1.307179676972449 11 -7.6
      vertex 0 11 -2
      vertex -1.352786404500042 11 -7.5297717981660215
    endloop
  endfacet
  facet normal 0 -1 0
    outer loop
      vertex -1.2174819194129554 11 -7.833670647345793
      vertex 0 11 -2
      vertex -1.2391547869638773 11 -7.752786404500042
    endloop
  endfacet
  facet normal 0 -1 0
    outer loop
      vertex -1.2391547869638773 11 -7.752786404500042
      vertex 0 11 -2
      vertex -1.2691636338859191 11 -7.67461068553936
    endloop
  endfacet
  facet normal 0 -1 0
    outer loop
      vertex -1.2691636338859191 11 -7.67461068553936
      vertex 0 11 -2
      vertex -1.307179676972449 11 -7.6
    endloop
  endfacet
  facet normal 0 -1 0
    outer loop
      vertex -1.4054841396180846 11 -7.464695514912913
      vertex 0 11 -2
      vertex -1.4646955149129135 11 -7.405484139618085
    endloop
  endfacet
  facet normal 0 -1 0
    outer loop
      vertex -1.5297717981660215 11 -7.352786404500042
      vertex -1.4646955149129135 11 -7.405484139618085
      vertex 0 11 -2
    endloop
  endfacet
  facet normal -0.9038129694266779 0 -0.4279276998467513
    outer loop
      vertex -3.8270909152852015 13 -10.8134732861516
      vertex -8 11 -2
      vertex -8 13 -2
    endloop
  endfacet
  facet normal -1 0 0
    outer loop
      vertex -8 11 -2
      vertex -8 13 -1.9
      vertex -8 13 -2
    endloop
  endfacet
  facet normal -1 0 0
    outer loop
      vertex -8 11 -2
      vertex -8 11 -1.9
      vertex -8 13 -1.9
    endloop
  endfacet
  facet normal 0 0 1
    outer loop
      vertex -8 11 -1.9
      vertex -1.5714285731011521 11 -1.9
      vertex -8 13 -1.9
    endloop
  endfacet
  facet normal 0 -1 0
    outer loop
      vertex -1.8336706473457924 11 -7.217481919412956
      vertex -1.5714285731011521 11 -1.9
      vertex -8 11 -1.9
    endloop
  endfacet
  facet normal 0 1 0
    outer loop
      vertex -2 13 -7.2
      vertex -8 13 -1.9
      vertex -1.5714285731011521 13 -1.9
    endloop
  endfacet
  facet normal 0 0 1
    outer loop
      vertex -8 13 -1.9
      vertex -1.5714285731011521 11 -1.9
      vertex -1.5714285731011521 13 -1.9
    endloop
  endfacet
  facet normal 0 1 0
    outer loop
      vertex 0 13 -10
      vertex -1.5714285731011521 13 -1.9
      vertex 0 13 -2
    endloop
  endfacet
  facet normal 1 0 0
    outer loop
      vertex 0 11 -10
      vertex 0 13 -1.9
      vertex 0 11 -2
    endloop
  endfacet
  facet normal 1 0 0
    outer loop
      vertex 0 11 -10
      vertex 0 13 -2
      vertex 0 13 -1.9
    endloop
  endfacet
  facet normal 0 -1 0
    outer loop
      vertex -1.8336706473457924 11 -7.217481919412956
      vertex 0 11 -2
      vertex -1.5714285731011521 11 -1.9
    endloop
  endfacet
  facet normal 1 0 0
    outer loop
      vertex 0 11 -2
      vertex 0 13 -1.9
      vertex 0 11 -1.9
    endloop
  endfacet
  facet normal 0.7771459614569678 0 0.6293203910498412
    outer loop
      vertex -2.5945158603819154 11 -8.535304485087087
      vertex -2.5945158603819154 13 -8.535304485087087
      vertex -2.647213595499958 11 -8.47022820183398
    endloop
  endfacet
  facet normal 0.5446390350150274 0 0.8386705679454236
    outer loop
      vertex -2.4702282018339785 11 -8.647213595499958
      vertex -2.4 11 -8.69282032302755
      vertex -2.4 13 -8.69282032302755
    endloop
  endfacet
  facet normal 0.6293203910498419 0 0.7771459614569673
    outer loop
      vertex -2.4702282018339785 11 -8.647213595499958
      vertex -2.4702282018339785 13 -8.647213595499958
      vertex -2.5353044850870865 11 -8.594515860381915
    endloop
  endfacet
  facet normal 0.7071067811865396 0 0.7071067811865555
    outer loop
      vertex -2.5945158603819154 11 -8.535304485087087
      vertex -2.5353044850870865 11 -8.594515860381915
      vertex -2.5353044850870865 13 -8.594515860381915
    endloop
  endfacet
  facet normal 0.6293203910498419 0 0.7771459614569673
    outer loop
      vertex -2.5353044850870865 11 -8.594515860381915
      vertex -2.4702282018339785 13 -8.647213595499958
      vertex -2.5353044850870865 13 -8.594515860381915
    endloop
  endfacet
  facet normal 0.5446390350150274 0 0.8386705679454236
    outer loop
      vertex -2.4702282018339785 11 -8.647213595499958
      vertex -2.4 13 -8.69282032302755
      vertex -2.4702282018339785 13 -8.647213595499958
    endloop
  endfacet
  facet normal 0.7071067811865396 0 0.7071067811865555
    outer loop
      vertex -2.5945158603819154 11 -8.535304485087087
      vertex -2.5353044850870865 13 -8.594515860381915
      vertex -2.5945158603819154 13 -8.535304485087087
    endloop
  endfacet
  facet normal 0.358367949545303 0 0.9335804264972007
    outer loop
      vertex -2.32538931446064 11 -8.730836366114081
      vertex -2.247213595499958 11 -8.760845213036124
      vertex -2.247213595499958 13 -8.760845213036124
    endloop
  endfacet
  facet normal 0.358367949545303 0 0.9335804264972007
    outer loop
      vertex -2.32538931446064 11 -8.730836366114081
      vertex -2.247213595499958 13 -8.760845213036124
      vertex -2.32538931446064 13 -8.730836366114081
    endloop
  endfacet
  facet normal 0.25881904510250775 0 0.9659258262890719
    outer loop
      vertex -2.247213595499958 11 -8.760845213036124
      vertex -2.1663293526542073 11 -8.782518080587044
      vertex -2.1663293526542073 13 -8.782518080587044
    endloop
  endfacet
  facet normal 0.15643446504024475 0 0.9876883405951355
    outer loop
      vertex -2.1663293526542073 11 -8.782518080587044
      vertex -2.083622770614123 11 -8.79561751629462
      vertex -2.083622770614123 13 -8.79561751629462
    endloop
  endfacet
  facet normal 0.25881904510250775 0 0.9659258262890719
    outer loop
      vertex -2.247213595499958 11 -8.760845213036124
      vertex -2.1663293526542073 13 -8.782518080587044
      vertex -2.247213595499958 13 -8.760845213036124
    endloop
  endfacet
  facet normal 0.15643446504024475 0 0.9876883405951355
    outer loop
      vertex -2.1663293526542073 11 -8.782518080587044
      vertex -2.083622770614123 13 -8.79561751629462
      vertex -2.1663293526542073 13 -8.782518080587044
    endloop
  endfacet
  facet normal 0.45399049973955474 0 0.8910065241883638
    outer loop
      vertex -2.32538931446064 11 -8.730836366114081
      vertex -2.32538931446064 13 -8.730836366114081
      vertex -2.4 11 -8.69282032302755
    endloop
  endfacet
  facet normal 0.45399049973955474 0 0.8910065241883638
    outer loop
      vertex -2.4 11 -8.69282032302755
      vertex -2.32538931446064 13 -8.730836366114081
      vertex -2.4 13 -8.69282032302755
    endloop
  endfacet
  facet normal 0.052335956242942135 0 0.9986295347545739
    outer loop
      vertex -2.083622770614123 11 -8.79561751629462
      vertex -2 11 -8.8
      vertex -2 13 -8.8
    endloop
  endfacet
  facet normal -0.052335956242942135 0 0.9986295347545739
    outer loop
      vertex -2 11 -8.8
      vertex -1.9163772293858772 11 -8.79561751629462
      vertex -1.9163772293858772 13 -8.79561751629462
    endloop
  endfacet
  facet normal 0.052335956242942135 0 0.9986295347545739
    outer loop
      vertex -2.083622770614123 11 -8.79561751629462
      vertex -2 13 -8.8
      vertex -2.083622770614123 13 -8.79561751629462
    endloop
  endfacet
  facet normal -0.052335956242942135 0 0.9986295347545739
    outer loop
      vertex -2 11 -8.8
      vertex -1.9163772293858772 13 -8.79561751629462
      vertex -2 13 -8.8
    endloop
  endfacet
  facet normal -0.15643446504024433 0 0.9876883405951355
    outer loop
      vertex -1.9163772293858772 11 -8.79561751629462
      vertex -1.8336706473457924 11 -8.782518080587044
      vertex -1.8336706473457924 13 -8.782518080587044
    endloop
  endfacet
  facet normal -0.258819045102509 0 0.9659258262890714
    outer loop
      vertex -1.8336706473457924 11 -8.782518080587044
      vertex -1.752786404500042 11 -8.760845213036124
      vertex -1.752786404500042 13 -8.760845213036124
    endloop
  endfacet
  facet normal -0.15643446504024433 0 0.9876883405951355
    outer loop
      vertex -1.9163772293858772 11 -8.79561751629462
      vertex -1.8336706473457924 13 -8.782518080587044
      vertex -1.9163772293858772 13 -8.79561751629462
    endloop
  endfacet
  facet normal -0.258819045102509 0 0.9659258262890714
    outer loop
      vertex -1.8336706473457924 11 -8.782518080587044
      vertex -1.752786404500042 13 -8.760845213036124
      vertex -1.8336706473457924 13 -8.782518080587044
    endloop
  endfacet
  facet normal -0.3583679495453021 0 0.9335804264972011
    outer loop
      vertex -1.752786404500042 11 -8.760845213036124
      vertex -1.6746106855393599 13 -8.730836366114081
      vertex -1.752786404500042 13 -8.760845213036124
    endloop
  endfacet
  facet normal -0.3583679495453021 0 0.9335804264972011
    outer loop
      vertex -1.752786404500042 11 -8.760845213036124
      vertex -1.6746106855393599 11 -8.730836366114081
      vertex -1.6746106855393599 13 -8.730836366114081
    endloop
  endfacet
  facet normal -0.45399049973955474 0 0.8910065241883638
    outer loop
      vertex -1.6746106855393599 11 -8.730836366114081
      vertex -1.6 11 -8.69282032302755
      vertex -1.6 13 -8.69282032302755
    endloop
  endfacet
  facet normal -0.5446390350150274 0 0.8386705679454236
    outer loop
      vertex -1.6 11 -8.69282032302755
      vertex -1.5297717981660215 11 -8.647213595499958
      vertex -1.5297717981660215 13 -8.647213595499958
    endloop
  endfacet
  facet normal -0.45399049973955474 0 0.8910065241883638
    outer loop
      vertex -1.6746106855393599 11 -8.730836366114081
      vertex -1.6 13 -8.69282032302755
      vertex -1.6746106855393599 13 -8.730836366114081
    endloop
  endfacet
  facet normal -0.5446390350150274 0 0.8386705679454236
    outer loop
      vertex -1.6 11 -8.69282032302755
      vertex -1.5297717981660215 13 -8.647213595499958
      vertex -1.6 13 -8.69282032302755
    endloop
  endfacet
  facet normal -0.6293203910498419 0 0.7771459614569673
    outer loop
      vertex -1.5297717981660215 11 -8.647213595499958
      vertex -1.4646955149129135 11 -8.594515860381915
      vertex -1.4646955149129135 13 -8.594515860381915
    endloop
  endfacet
  facet normal -0.7071067811865396 0 0.7071067811865555
    outer loop
      vertex -1.4646955149129135 11 -8.594515860381915
      vertex -1.4054841396180846 11 -8.535304485087087
      vertex -1.4054841396180846 13 -8.535304485087087
    endloop
  endfacet
  facet normal -0.6293203910498419 0 0.7771459614569673
    outer loop
      vertex -1.5297717981660215 11 -8.647213595499958
      vertex -1.4646955149129135 13 -8.594515860381915
      vertex -1.5297717981660215 13 -8.647213595499958
    endloop
  endfacet
  facet normal -0.7071067811865396 0 0.7071067811865555
    outer loop
      vertex -1.4646955149129135 11 -8.594515860381915
      vertex -1.4054841396180846 13 -8.535304485087087
      vertex -1.4646955149129135 13 -8.594515860381915
    endloop
  endfacet
  facet normal -0.7771459614569678 0 0.6293203910498412
    outer loop
      vertex -1.4054841396180846 11 -8.535304485087087
      vertex -1.352786404500042 13 -8.47022820183398
      vertex -1.4054841396180846 13 -8.535304485087087
    endloop
  endfacet
  facet normal 0.9659258262890671 0 0.25881904510252524
    outer loop
      vertex -2.7608452130361227 11 -8.247213595499957
      vertex -2.7608452130361227 13 -8.247213595499957
      vertex -2.7825180805870446 11 -8.166329352654207
    endloop
  endfacet
  facet normal 0.9876883405951382 0 0.1564344650402276
    outer loop
      vertex -2.7825180805870446 11 -8.166329352654207
      vertex -2.7825180805870446 13 -8.166329352654207
      vertex -2.7956175162946186 11 -8.083622770614122
    endloop
  endfacet
  facet normal 0.9335804264972039 0 0.35836794954529483
    outer loop
      vertex -2.7608452130361227 11 -8.247213595499957
      vertex -2.730836366114081 13 -8.32538931446064
      vertex -2.7608452130361227 13 -8.247213595499957
    endloop
  endfacet
  facet normal 0.9659258262890671 0 0.25881904510252524
    outer loop
      vertex -2.7825180805870446 11 -8.166329352654207
      vertex -2.7608452130361227 13 -8.247213595499957
      vertex -2.7825180805870446 13 -8.166329352654207
    endloop
  endfacet
  facet normal 0.9876883405951382 0 0.1564344650402276
    outer loop
      vertex -2.7956175162946186 11 -8.083622770614122
      vertex -2.7825180805870446 13 -8.166329352654207
      vertex -2.7956175162946186 13 -8.083622770614122
    endloop
  endfacet
  facet normal 0.9986295347545738 0 0.05233595624294269
    outer loop
      vertex -2.7956175162946186 11 -8.083622770614122
      vertex -2.7956175162946186 13 -8.083622770614122
      vertex -2.8 11 -8
    endloop
  endfacet
  facet normal 0.9986295347545739 0 -0.052335956242942135
    outer loop
      vertex -2.8 11 -8
      vertex -2.8 13 -8
      vertex -2.7956175162946186 11 -7.916377229385877
    endloop
  endfacet
  facet normal 0.987688340595138 0 -0.15643446504022923
    outer loop
      vertex -2.7956175162946186 11 -7.916377229385877
      vertex -2.7956175162946186 13 -7.916377229385877
      vertex -2.7825180805870446 11 -7.833670647345793
    endloop
  endfacet
  facet normal 0.9986295347545738 0 0.05233595624294269
    outer loop
      vertex -2.7956175162946186 13 -8.083622770614122
      vertex -2.8 13 -8
      vertex -2.8 11 -8
    endloop
  endfacet
  facet normal 0.9986295347545739 0 -0.052335956242942135
    outer loop
      vertex -2.7956175162946186 11 -7.916377229385877
      vertex -2.8 13 -8
      vertex -2.7956175162946186 13 -7.916377229385877
    endloop
  endfacet
  facet normal 0.987688340595138 0 -0.15643446504022923
    outer loop
      vertex -2.7825180805870446 11 -7.833670647345793
      vertex -2.7956175162946186 13 -7.916377229385877
      vertex -2.7825180805870446 13 -7.833670647345793
    endloop
  endfacet
  facet normal 0.9659258262890679 0 -0.2588190451025226
    outer loop
      vertex -2.7825180805870446 11 -7.833670647345793
      vertex -2.7825180805870446 13 -7.833670647345793
      vertex -2.7608452130361227 11 -7.752786404500042
    endloop
  endfacet
  facet normal 0.9335804264972025 0 -0.3583679495452984
    outer loop
      vertex -2.7608452130361227 11 -7.752786404500042
      vertex -2.7608452130361227 13 -7.752786404500042
      vertex -2.730836366114081 11 -7.67461068553936
    endloop
  endfacet
  facet normal 0.9659258262890679 0 -0.2588190451025226
    outer loop
      vertex -2.7608452130361227 11 -7.752786404500042
      vertex -2.7825180805870446 13 -7.833670647345793
      vertex -2.7608452130361227 13 -7.752786404500042
    endloop
  endfacet
  facet normal 0.8386705679454277 0 0.5446390350150213
    outer loop
      vertex -2.6928203230275507 11 -8.4
      vertex -2.647213595499958 11 -8.47022820183398
      vertex -2.647213595499958 13 -8.47022820183398
    endloop
  endfacet
  facet normal 0.891006524188367 0 0.45399049973954836
    outer loop
      vertex -2.6928203230275507 11 -8.4
      vertex -2.6928203230275507 13 -8.4
      vertex -2.730836366114081 11 -8.32538931446064
    endloop
  endfacet
  facet normal 0.9335804264972039 0 0.35836794954529483
    outer loop
      vertex -2.7608452130361227 11 -8.247213595499957
      vertex -2.730836366114081 11 -8.32538931446064
      vertex -2.730836366114081 13 -8.32538931446064
    endloop
  endfacet
  facet normal 0.8386705679454277 0 0.5446390350150213
    outer loop
      vertex -2.6928203230275507 11 -8.4
      vertex -2.647213595499958 13 -8.47022820183398
      vertex -2.6928203230275507 13 -8.4
    endloop
  endfacet
  facet normal 0.7771459614569678 0 0.6293203910498412
    outer loop
      vertex -2.5945158603819154 13 -8.535304485087087
      vertex -2.647213595499958 13 -8.47022820183398
      vertex -2.647213595499958 11 -8.47022820183398
    endloop
  endfacet
  facet normal 0.891006524188367 0 0.45399049973954836
    outer loop
      vertex -2.730836366114081 11 -8.32538931446064
      vertex -2.6928203230275507 13 -8.4
      vertex -2.730836366114081 13 -8.32538931446064
    endloop
  endfacet
  facet normal 0.891006524188367 0 -0.45399049973954836
    outer loop
      vertex -2.730836366114081 11 -7.67461068553936
      vertex -2.730836366114081 13 -7.67461068553936
      vertex -2.6928203230275507 11 -7.6
    endloop
  endfacet
  facet normal 0.9335804264972025 0 -0.3583679495452984
    outer loop
      vertex -2.7608452130361227 13 -7.752786404500042
      vertex -2.730836366114081 13 -7.67461068553936
      vertex -2.730836366114081 11 -7.67461068553936
    endloop
  endfacet
  facet normal 0.8386705679454246 0 -0.5446390350150262
    outer loop
      vertex -2.6928203230275507 11 -7.6
      vertex -2.6928203230275507 13 -7.6
      vertex -2.647213595499958 11 -7.5297717981660215
    endloop
  endfacet
  facet normal 0.7771459614569719 0 -0.629320391049836
    outer loop
      vertex -2.647213595499958 11 -7.5297717981660215
      vertex -2.647213595499958 13 -7.5297717981660215
      vertex -2.5945158603819154 11 -7.464695514912913
    endloop
  endfacet
  facet normal 0.891006524188367 0 -0.45399049973954836
    outer loop
      vertex -2.730836366114081 13 -7.67461068553936
      vertex -2.6928203230275507 13 -7.6
      vertex -2.6928203230275507 11 -7.6
    endloop
  endfacet
  facet normal 0.8386705679454246 0 -0.5446390350150262
    outer loop
      vertex -2.647213595499958 11 -7.5297717981660215
      vertex -2.6928203230275507 13 -7.6
      vertex -2.647213595499958 13 -7.5297717981660215
    endloop
  endfacet
  facet normal 0.7771459614569719 0 -0.629320391049836
    outer loop
      vertex -2.5945158603819154 11 -7.464695514912913
      vertex -2.647213595499958 13 -7.5297717981660215
      vertex -2.5945158603819154 13 -7.464695514912913
    endloop
  endfacet
  facet normal 0.7071067811865449 0 -0.7071067811865502
    outer loop
      vertex -2.5945158603819154 11 -7.464695514912913
      vertex -2.5945158603819154 13 -7.464695514912913
      vertex -2.5353044850870865 11 -7.405484139618085
    endloop
  endfacet
  facet normal 0.7071067811865449 0 -0.7071067811865502
    outer loop
      vertex -2.5353044850870865 11 -7.405484139618085
      vertex -2.5945158603819154 13 -7.464695514912913
      vertex -2.5353044850870865 13 -7.405484139618085
    endloop
  endfacet
  facet normal 0.6293203910498355 0 -0.7771459614569726
    outer loop
      vertex -2.5353044850870865 11 -7.405484139618085
      vertex -2.5353044850870865 13 -7.405484139618085
      vertex -2.4702282018339785 11 -7.352786404500042
    endloop
  endfacet
  facet normal 0.5446390350150274 0 -0.8386705679454236
    outer loop
      vertex -2.4702282018339785 11 -7.352786404500042
      vertex -2.4702282018339785 13 -7.352786404500042
      vertex -2.4 11 -7.307179676972449
    endloop
  endfacet
  facet normal 0.6293203910498355 0 -0.7771459614569726
    outer loop
      vertex -2.4702282018339785 11 -7.352786404500042
      vertex -2.5353044850870865 13 -7.405484139618085
      vertex -2.4702282018339785 13 -7.352786404500042
    endloop
  endfacet
  facet normal 0.5446390350150274 0 -0.8386705679454236
    outer loop
      vertex -2.4702282018339785 13 -7.352786404500042
      vertex -2.4 13 -7.307179676972449
      vertex -2.4 11 -7.307179676972449
    endloop
  endfacet
  facet normal 0.4539904997395463 0 -0.891006524188368
    outer loop
      vertex -2.4 11 -7.307179676972449
      vertex -2.4 13 -7.307179676972449
      vertex -2.32538931446064 11 -7.26916363388592
    endloop
  endfacet
  facet normal 0.358367949545303 0 -0.9335804264972007
    outer loop
      vertex -2.32538931446064 11 -7.26916363388592
      vertex -2.32538931446064 13 -7.26916363388592
      vertex -2.247213595499958 11 -7.239154786963877
    endloop
  endfacet
  facet normal 0.4539904997395463 0 -0.891006524188368
    outer loop
      vertex -2.32538931446064 11 -7.26916363388592
      vertex -2.4 13 -7.307179676972449
      vertex -2.32538931446064 13 -7.26916363388592
    endloop
  endfacet
  facet normal 0.358367949545303 0 -0.9335804264972007
    outer loop
      vertex -2.247213595499958 11 -7.239154786963877
      vertex -2.32538931446064 13 -7.26916363388592
      vertex -2.247213595499958 13 -7.239154786963877
    endloop
  endfacet
  facet normal 0.25881904510251763 0 -0.9659258262890692
    outer loop
      vertex -2.247213595499958 11 -7.239154786963877
      vertex -2.247213595499958 13 -7.239154786963877
      vertex -2.1663293526542073 11 -7.217481919412956
    endloop
  endfacet
  facet normal 0.15643446504023442 0 -0.9876883405951373
    outer loop
      vertex -2.1663293526542073 11 -7.217481919412956
      vertex -2.1663293526542073 13 -7.217481919412956
      vertex -2.083622770614123 11 -7.204382483705381
    endloop
  endfacet
  facet normal 0.25881904510251763 0 -0.9659258262890692
    outer loop
      vertex -2.1663293526542073 11 -7.217481919412956
      vertex -2.247213595499958 13 -7.239154786963877
      vertex -2.1663293526542073 13 -7.217481919412956
    endloop
  endfacet
  facet normal 0.15643446504023442 0 -0.9876883405951373
    outer loop
      vertex -2.083622770614123 11 -7.204382483705381
      vertex -2.1663293526542073 13 -7.217481919412956
      vertex -2.083622770614123 13 -7.204382483705381
    endloop
  endfacet
  facet normal 0.052335956242942135 0 -0.9986295347545739
    outer loop
      vertex -2.083622770614123 11 -7.204382483705381
      vertex -2.083622770614123 13 -7.204382483705381
      vertex -2 11 -7.2
    endloop
  endfacet
  facet normal -0.052335956242942135 0 -0.9986295347545739
    outer loop
      vertex -2 11 -7.2
      vertex -2 13 -7.2
      vertex -1.9163772293858772 11 -7.204382483705381
    endloop
  endfacet
  facet normal 0.052335956242942135 0 -0.9986295347545739
    outer loop
      vertex -2.083622770614123 13 -7.204382483705381
      vertex -2 13 -7.2
      vertex -2 11 -7.2
    endloop
  endfacet
  facet normal -0.052335956242942135 0 -0.9986295347545739
    outer loop
      vertex -1.9163772293858772 11 -7.204382483705381
      vertex -2 13 -7.2
      vertex -1.9163772293858772 13 -7.204382483705381
    endloop
  endfacet
  facet normal -0.156434465040234 0 -0.9876883405951372
    outer loop
      vertex -1.9163772293858772 11 -7.204382483705381
      vertex -1.9163772293858772 13 -7.204382483705381
      vertex -1.8336706473457924 11 -7.217481919412956
    endloop
  endfacet
  facet normal -0.2588190451025189 0 -0.9659258262890686
    outer loop
      vertex -1.8336706473457924 11 -7.217481919412956
      vertex -1.8336706473457924 13 -7.217481919412956
      vertex -1.752786404500042 11 -7.239154786963877
    endloop
  endfacet
  facet normal -0.3583679495453021 0 -0.9335804264972011
    outer loop
      vertex -1.752786404500042 11 -7.239154786963877
      vertex -1.752786404500042 13 -7.239154786963877
      vertex -1.6746106855393599 11 -7.26916363388592
    endloop
  endfacet
  facet normal -0.156434465040234 0 -0.9876883405951372
    outer loop
      vertex -1.8336706473457924 11 -7.217481919412956
      vertex -1.9163772293858772 13 -7.204382483705381
      vertex -1.8336706473457924 13 -7.217481919412956
    endloop
  endfacet
  facet normal -0.2588190451025189 0 -0.9659258262890686
    outer loop
      vertex -1.752786404500042 11 -7.239154786963877
      vertex -1.8336706473457924 13 -7.217481919412956
      vertex -1.752786404500042 13 -7.239154786963877
    endloop
  endfacet
  facet normal -0.7771459614569719 0 -0.629320391049836
    outer loop
      vertex -1.4054841396180846 11 -7.464695514912913
      vertex -1.4054841396180846 13 -7.464695514912913
      vertex -1.352786404500042 11 -7.5297717981660215
    endloop
  endfacet
  facet normal -0.7071067811865449 0 -0.7071067811865502
    outer loop
      vertex -1.4054841396180846 11 -7.464695514912913
      vertex -1.4646955149129135 11 -7.405484139618085
      vertex -1.4646955149129135 13 -7.405484139618085
    endloop
  endfacet
  facet normal -0.7071067811865449 0 -0.7071067811865502
    outer loop
      vertex -1.4054841396180846 11 -7.464695514912913
      vertex -1.4646955149129135 13 -7.405484139618085
      vertex -1.4054841396180846 13 -7.464695514912913
    endloop
  endfacet
  facet normal -0.5446390350150274 0 -0.8386705679454236
    outer loop
      vertex -1.6 11 -7.307179676972449
      vertex -1.6 13 -7.307179676972449
      vertex -1.5297717981660215 11 -7.352786404500042
    endloop
  endfacet
  facet normal -0.4539904997395463 0 -0.891006524188368
    outer loop
      vertex -1.6 11 -7.307179676972449
      vertex -1.6746106855393599 11 -7.26916363388592
      vertex -1.6746106855393599 13 -7.26916363388592
    endloop
  endfacet
  facet normal -0.5446390350150274 0 -0.8386705679454236
    outer loop
      vertex -1.5297717981660215 11 -7.352786404500042
      vertex -1.6 13 -7.307179676972449
      vertex -1.5297717981660215 13 -7.352786404500042
    endloop
  endfacet
  facet normal -0.3583679495453021 0 -0.9335804264972011
    outer loop
      vertex -1.752786404500042 13 -7.239154786963877
      vertex -1.6746106855393599 13 -7.26916363388592
      vertex -1.6746106855393599 11 -7.26916363388592
    endloop
  endfacet
  facet normal -0.4539904997395463 0 -0.891006524188368
    outer loop
      vertex -1.6 11 -7.307179676972449
      vertex -1.6746106855393599 13 -7.26916363388592
      vertex -1.6 13 -7.307179676972449
    endloop
  endfacet
  facet normal -0.6293203910498355 0 -0.7771459614569726
    outer loop
      vertex -1.5297717981660215 11 -7.352786404500042
      vertex -1.5297717981660215 13 -7.352786404500042
      vertex -1.4646955149129135 11 -7.405484139618085
    endloop
  endfacet
  facet normal -0.6293203910498355 0 -0.7771459614569726
    outer loop
      vertex -1.4646955149129135 11 -7.405484139618085
      vertex -1.5297717981660215 13 -7.352786404500042
      vertex -1.4646955149129135 13 -7.405484139618085
    endloop
  endfacet
  facet normal -0.7771459614569678 0 0.6293203910498412
    outer loop
      vertex -1.4054841396180846 11 -8.535304485087087
      vertex -1.352786404500042 11 -8.47022820183398
      vertex -1.352786404500042 13 -8.47022820183398
    endloop
  endfacet
  facet normal -0.8386705679454264 0 0.5446390350150232
    outer loop
      vertex -1.352786404500042 11 -8.47022820183398
      vertex -1.307179676972449 11 -8.4
      vertex -1.307179676972449 13 -8.4
    endloop
  endfacet
  facet normal -0.8910065241883682 0 0.4539904997395463
    outer loop
      vertex -1.307179676972449 11 -8.4
      vertex -1.2691636338859191 11 -8.32538931446064
      vertex -1.2691636338859191 13 -8.32538931446064
    endloop
  endfacet
  facet normal -0.8386705679454264 0 0.5446390350150232
    outer loop
      vertex -1.352786404500042 11 -8.47022820183398
      vertex -1.307179676972449 13 -8.4
      vertex -1.352786404500042 13 -8.47022820183398
    endloop
  endfacet
  facet normal -0.8910065241883682 0 0.4539904997395463
    outer loop
      vertex -1.307179676972449 11 -8.4
      vertex -1.2691636338859191 13 -8.32538931446064
      vertex -1.307179676972449 13 -8.4
    endloop
  endfacet
  facet normal -0.9335804264972039 0 0.35836794954529483
    outer loop
      vertex -1.2691636338859191 11 -8.32538931446064
      vertex -1.2391547869638773 13 -8.247213595499957
      vertex -1.2691636338859191 13 -8.32538931446064
    endloop
  endfacet
  facet normal -0.9335804264972039 0 0.35836794954529483
    outer loop
      vertex -1.2691636338859191 11 -8.32538931446064
      vertex -1.2391547869638773 11 -8.247213595499957
      vertex -1.2391547869638773 13 -8.247213595499957
    endloop
  endfacet
  facet normal -0.9659258262890671 0 0.25881904510252524
    outer loop
      vertex -1.2391547869638773 11 -8.247213595499957
      vertex -1.2174819194129554 11 -8.166329352654207
      vertex -1.2174819194129554 13 -8.166329352654207
    endloop
  endfacet
  facet normal -0.9876883405951382 0 0.1564344650402276
    outer loop
      vertex -1.2174819194129554 11 -8.166329352654207
      vertex -1.2043824837053814 11 -8.083622770614122
      vertex -1.2043824837053814 13 -8.083622770614122
    endloop
  endfacet
  facet normal -0.9659258262890671 0 0.25881904510252524
    outer loop
      vertex -1.2391547869638773 11 -8.247213595499957
      vertex -1.2174819194129554 13 -8.166329352654207
      vertex -1.2391547869638773 13 -8.247213595499957
    endloop
  endfacet
  facet normal -0.9876883405951382 0 0.1564344650402276
    outer loop
      vertex -1.2174819194129554 11 -8.166329352654207
      vertex -1.2043824837053814 13 -8.083622770614122
      vertex -1.2174819194129554 13 -8.166329352654207
    endloop
  endfacet
  facet normal -0.987688340595138 0 -0.15643446504022923
    outer loop
      vertex -1.2043824837053814 11 -7.916377229385877
      vertex -1.2174819194129554 11 -7.833670647345793
      vertex -1.2174819194129554 13 -7.833670647345793
    endloop
  endfacet
  facet normal -0.987688340595138 0 -0.15643446504022923
    outer loop
      vertex -1.2043824837053814 11 -7.916377229385877
      vertex -1.2174819194129554 13 -7.833670647345793
      vertex -1.2043824837053814 13 -7.916377229385877
    endloop
  endfacet
  facet normal -0.9986295347545738 0 0.05233595624294534
    outer loop
      vertex -1.2043824837053814 11 -8.083622770614122
      vertex -1.2 11 -8
      vertex -1.2 13 -8
    endloop
  endfacet
  facet normal -0.9986295347545737 0 -0.05233595624294478
    outer loop
      vertex -1.2043824837053814 11 -7.916377229385877
      vertex -1.2043824837053814 13 -7.916377229385877
      vertex -1.2 11 -8
    endloop
  endfacet
  facet normal -0.9986295347545738 0 0.05233595624294534
    outer loop
      vertex -1.2043824837053814 11 -8.083622770614122
      vertex -1.2 13 -8
      vertex -1.2043824837053814 13 -8.083622770614122
    endloop
  endfacet
  facet normal -0.9986295347545737 0 -0.05233595624294478
    outer loop
      vertex -1.2 11 -8
      vertex -1.2043824837053814 13 -7.916377229385877
      vertex -1.2 13 -8
    endloop
  endfacet
  facet normal -0.9659258262890679 0 -0.2588190451025226
    outer loop
      vertex -1.2174819194129554 11 -7.833670647345793
      vertex -1.2391547869638773 11 -7.752786404500042
      vertex -1.2391547869638773 13 -7.752786404500042
    endloop
  endfacet
  facet normal -0.9335804264972025 0 -0.3583679495452984
    outer loop
      vertex -1.2391547869638773 11 -7.752786404500042
      vertex -1.2691636338859191 11 -7.67461068553936
      vertex -1.2691636338859191 13 -7.67461068553936
    endloop
  endfacet
  facet normal -0.9659258262890679 0 -0.2588190451025226
    outer loop
      vertex -1.2174819194129554 11 -7.833670647345793
      vertex -1.2391547869638773 13 -7.752786404500042
      vertex -1.2174819194129554 13 -7.833670647345793
    endloop
  endfacet
  facet normal -0.9335804264972025 0 -0.3583679495452984
    outer loop
      vertex -1.2391547869638773 11 -7.752786404500042
      vertex -1.2691636338859191 13 -7.67461068553936
      vertex -1.2391547869638773 13 -7.752786404500042
    endloop
  endfacet
  facet normal -0.8910065241883682 0 -0.4539904997395463
    outer loop
      vertex -1.2691636338859191 11 -7.67461068553936
      vertex -1.307179676972449 13 -7.6
      vertex -1.2691636338859191 13 -7.67461068553936
    endloop
  endfacet
  facet normal -0.8910065241883682 0 -0.4539904997395463
    outer loop
      vertex -1.2691636338859191 11 -7.67461068553936
      vertex -1.307179676972449 11 -7.6
      vertex -1.307179676972449 13 -7.6
    endloop
  endfacet
  facet normal -0.8386705679454234 0 -0.5446390350150281
    outer loop
      vertex -1.307179676972449 11 -7.6
      vertex -1.352786404500042 11 -7.5297717981660215
      vertex -1.352786404500042 13 -7.5297717981660215
    endloop
  endfacet
  facet normal -0.8386705679454234 0 -0.5446390350150281
    outer loop
      vertex -1.307179676972449 11 -7.6
      vertex -1.352786404500042 13 -7.5297717981660215
      vertex -1.307179676972449 13 -7.6
    endloop
  endfacet
  facet normal -0.7771459614569719 0 -0.629320391049836
    outer loop
      vertex -1.4054841396180846 13 -7.464695514912913
      vertex -1.352786404500042 13 -7.5297717981660215
      vertex -1.352786404500042 11 -7.5297717981660215
    endloop
  endfacet
  facet normal -1 0 0
    outer loop
      vertex -22 0 -0.6000000014901161
      vertex -22 0 0.6000000014901161
      vertex -22 88 -0.6000000014901161
    endloop
  endfacet
  facet normal 0 -1 0
    outer loop
      vertex -22 0 -0.6000000014901161
      vertex 0 0 -2
      vertex -22 0 0.6000000014901161
    endloop
  endfacet
  facet normal -0.06350790310812449 0 0.9979813356184619
    outer loop
      vertex -22 0 0.6000000014901161
      vertex 0 0 2
      vertex -22 88 0.6000000014901161
    endloop
  endfacet
  facet normal -1 0 0
    outer loop
      vertex -22 0 0.6000000014901161
      vertex -22 88 0.6000000014901161
      vertex -22 88 -0.6000000014901161
    endloop
  endfacet
  facet normal -0.06350790310812449 0 -0.9979813356184619
    outer loop
      vertex -22 0 -0.6000000014901161
      vertex -22 88 -0.6000000014901161
      vertex 0 88 -2
    endloop
  endfacet
  facet normal 0 1 0
    outer loop
      vertex -22 88 -0.6000000014901161
      vertex -22 88 0.6000000014901161
      vertex 0 88 -2
    endloop
  endfacet
  facet normal -0.06350790310812449 1.4650999761319434e-17 -0.9979813356184619
    outer loop
      vertex -22 0 -0.6000000014901161
      vertex -1.5714285731011521 11 -1.9
      vertex 0 0 -2
    endloop
  endfacet
  facet normal 0 -1 0
    outer loop
      vertex -22 0 0.6000000014901161
      vertex -2.5 0 -0.8
      vertex -2.5 0 0.8
    endloop
  endfacet
  facet normal -0.06350790310812447 0 -0.9979813356184618
    outer loop
      vertex -22 0 -0.6000000014901161
      vertex -1.5714285731011521 13 -1.9
      vertex -1.5714285731011521 11 -1.9
    endloop
  endfacet
  facet normal 0 -1 0
    outer loop
      vertex -22 0 0.6000000014901161
      vertex 0 0 -2
      vertex -2.5 0 -0.8
    endloop
  endfacet
  facet normal 0 -1 0
    outer loop
      vertex -22 0 0.6000000014901161
      vertex -2.5 0 0.8
      vertex 0 0 2
    endloop
  endfacet
  facet normal -0.06350790310812447 -2.3453783403979956e-18 -0.9979813356184619
    outer loop
      vertex -22 0 -0.6000000014901161
      vertex 0 88 -2
      vertex -1.5714285731011521 13 -1.9
    endloop
  endfacet
  facet normal 1 0 0
    outer loop
      vertex 0 0 -2
      vertex 0 11 -1.9
      vertex 0 0 -0.8
    endloop
  endfacet
  facet normal -0.06350790310812449 0 -0.997981335618462
    outer loop
      vertex 0 0 -2
      vertex -1.5714285731011521 11 -1.9
      vertex 0 11 -2
    endloop
  endfacet
  facet normal 1 0 0
    outer loop
      vertex 0 0 -2
      vertex 0 11 -2
      vertex 0 11 -1.9
    endloop
  endfacet
  facet normal 1 0 0
    outer loop
      vertex 0 11 -1.9
      vertex 0 13 -1.9
      vertex 0 0 -0.8
    endloop
  endfacet
  facet normal 0 -1 0
    outer loop
      vertex 0 0 -2
      vertex 0 0 -0.8
      vertex -2.5 0 -0.8
    endloop
  endfacet
  facet normal 0 -1 0
    outer loop
      vertex 0 0 2
      vertex -2.5 0 0.8
      vertex 0 0 0.8
    endloop
  endfacet
  facet normal 1 0 0
    outer loop
      vertex 0 13 -1.9
      vertex 0 88 -2
      vertex 0 0 -0.8
    endloop
  endfacet
  facet normal -0.06350790310812449 0 -0.9979813356184619
    outer loop
      vertex -1.5714285731011521 13 -1.9
      vertex 0 88 -2
      vertex 0 13 -2
    endloop
  endfacet
  facet normal 1 0 0
    outer loop
      vertex 0 13 -2
      vertex 0 88 -2
      vertex 0 13 -1.9
    endloop
  endfacet
  facet normal 1 0 0
    outer loop
      vertex 0 0 2
      vertex 0 0 0.8
      vertex 0 88 0.8
    endloop
  endfacet
  facet normal -0.06350790310812449 0 0.9979813356184619
    outer loop
      vertex -22 88 0.6000000014901161
      vertex 0 0 2
      vertex 0 88 2
    endloop
  endfacet
  facet normal 0 1 0
    outer loop
      vertex -22 88 0.6000000014901161
      vertex -2.5 88 0.8
      vertex -2.5 88 -0.8
    endloop
  endfacet
  facet normal 0 1 0
    outer loop
      vertex -22 88 0.6000000014901161
      vertex -2.5 88 -0.8
      vertex 0 88 -2
    endloop
  endfacet
  facet normal 0 1 0
    outer loop
      vertex -22 88 0.6000000014901161
      vertex 0 88 2
      vertex -2.5 88 0.8
    endloop
  endfacet
  facet normal 1 0 0
    outer loop
      vertex 0 88 -2
      vertex 0 88 -0.8
      vertex 0 0 -0.8
    endloop
  endfacet
  facet normal 1 0 0
    outer loop
      vertex 0 0 2
      vertex 0 88 0.8
      vertex 0 88 2
    endloop
  endfacet
  facet normal 0 1 0
    outer loop
      vertex 0 88 -2
      vertex -2.5 88 -0.8
      vertex 0 88 -0.8
    endloop
  endfacet
  facet normal 0 1 0
    outer loop
      vertex 0 88 2
      vertex 0 88 0.8
      vertex -2.5 88 0.8
    endloop
  endfacet
  facet normal 0 0 1
    outer loop
      vertex -2.5 0 -0.8
      vertex 0 0 -0.8
      vertex -2.5 88 -0.8
    endloop
  endfacet
  facet normal 1 0 0
    outer loop
      vertex -2.5 0 0.8
      vertex -2.5 0 -0.8
      vertex -2.5 88 -0.8
    endloop
  endfacet
  facet normal 0 0 -1
    outer loop
      vertex 0 0 0.8
      vertex -2.5 0 0.8
      vertex 0 88 0.8
    endloop
  endfacet
  facet normal 0 0 1
    outer loop
      vertex 0 88 -0.8
      vertex -2.5 88 -0.8
      vertex 0 0 -0.8
    endloop
  endfacet
  facet normal 1 0 0
    outer loop
      vertex -2.5 0 0.8
      vertex -2.5 88 -0.8
      vertex -2.5 88 0.8
    endloop
  endfacet
  facet normal 0 0 -1
    outer loop
      vertex -2.5 0 0.8
      vertex -2.5 88 0.8
      vertex 0 88 0.8
    endloop
  endfacet
endsolid OpenSCAD_Model
