solid OpenSCAD_Model
  facet normal 0 0 -1
    outer loop
      vertex -25 -15 -2.5
      vertex -25 15 -2.5
      vertex -11.6 -6.199999999999999 -2.5
    endloop
  endfacet
  facet normal 0 0 -1
    outer loop
      vertex -25 -15 -2.5
      vertex -11.6 -6.199999999999999 -2.5
      vertex 11.6 -6.199999999999999 -2.5
    endloop
  endfacet
  facet normal -1 0 0
    outer loop
      vertex -25 -15 -2.5
      vertex -25 -15 2.5
      vertex -25 15 2.5
    endloop
  endfacet
  facet normal 0 0 1
    outer loop
      vertex -25 -15 2.5
      vertex -16.1 -6.199999999999999 2.5
      vertex -25 15 2.5
    endloop
  endfacet
  facet normal 0 -1 0
    outer loop
      vertex -25 -15 -2.5
      vertex 25 -15 2.5
      vertex -25 -15 2.5
    endloop
  endfacet
  facet normal 0 0 1
    outer loop
      vertex -25 -15 2.5
      vertex 25 -15 2.5
      vertex -16.1 -6.199999999999999 2.5
    endloop
  endfacet
  facet normal 0 0 -1
    outer loop
      vertex -25 15 -2.5
      vertex -11.6 6.199999999999999 -2.5
      vertex -11.6 -6.199999999999999 -2.5
    endloop
  endfacet
  facet normal -1 0 0
    outer loop
      vertex -25 -15 -2.5
      vertex -25 15 2.5
      vertex -25 15 -2.5
    endloop
  endfacet
  facet normal 0 0 -1
    outer loop
      vertex -25 15 -2.5
      vertex 25 15 -2.5
      vertex -11.6 6.199999999999999 -2.5
    endloop
  endfacet
  facet normal 0 1 0
    outer loop
      vertex -25 15 -2.5
      vertex -25 15 2.5
      vertex 25 15 -2.5
    endloop
  endfacet
  facet normal 0 0 1
    outer loop
      vertex -25 15 2.5
      vertex -16.1 -6.199999999999999 2.5
      vertex -16.1 6.199999999999999 2.5
    endloop
  endfacet
  facet normal 0 0 1
    outer loop
      vertex -25 15 2.5
      vertex -16.1 6.199999999999999 2.5
      vertex 16.1 6.199999999999999 2.5
    endloop
  endfacet
  facet normal 0 0 -1
    outer loop
      vertex -25 -15 -2.5
      vertex 11.6 -6.199999999999999 -2.5
      vertex 25 -15 -2.5
    endloop
  endfacet
  facet normal 0 -1 0
    outer loop
      vertex -25 -15 -2.5
      vertex 25 -15 -2.5
      vertex 25 -15 2.5
    endloop
  endfacet
  facet normal 0 0 -1
    outer loop
      vertex 25 -15 -2.5
      vertex 11.6 -6.199999999999999 -2.5
      vertex 11.6 6.199999999999999 -2.5
    endloop
  endfacet
  facet normal 1 0 0
    outer loop
      vertex 25 -15 -2.5
      vertex 25 15 -2.5
      vertex 25 -15 2.5
    endloop
  endfacet
  facet normal 0 0 1
    outer loop
      vertex 25 -15 2.5
      vertex 16.1 -6.199999999999999 2.5
      vertex -16.1 -6.199999999999999 2.5
    endloop
  endfacet
  facet normal 0 0 1
    outer loop
      vertex 25 -15 2.5
      vertex 16.1 6.199999999999999 2.5
      vertex 16.1 -6.199999999999999 2.5
    endloop
  endfacet
  facet normal 0 0 -1
    outer loop
      vertex 25 15 -2.5
      vertex 11.6 6.199999999999999 -2.5
      vertex -11.6 6.199999999999999 -2.5
    endloop
  endfacet
  facet normal 0 0 -1
    outer loop
      vertex 25 -15 -2.5
      vertex 11.6 6.199999999999999 -2.5
      vertex 25 15 -2.5
    endloop
  endfacet
  facet normal 0 1 0
    outer loop
      vertex -25 15 2.5
      vertex 25 15 2.5
      vertex 25 15 -2.5
    endloop
  endfacet
  facet normal 0 0 1
    outer loop
      vertex -25 15 2.5
      vertex 16.1 6.199999999999999 2.5
      vertex 25 15 2.5
    endloop
  endfacet
  facet normal 1 0 0
    outer loop
      vertex 25 -15 2.5
      vertex 25 15 -2.5
      vertex 25 15 2.5
    endloop
  endfacet
  facet normal 0 0 1
    outer loop
      vertex 25 -15 2.5
      vertex 25 15 2.5
      vertex 16.1 6.199999999999999 2.5
    endloop
  endfacet
  facet normal 0 0 1
    outer loop
      vertex -16.1 -6.199999999999999 -0.6000000000000001
      vertex -11.6 -6.199999999999999 -0.6000000000000001
      vertex -11.6 6.199999999999999 -0.6000000000000001
    endloop
  endfacet
  facet normal 0 1 0
    outer loop
      vertex -16.1 -6.199999999999999 -0.6000000000000001
      vertex -16.1 -6.199999999999999 2.5
      vertex -11.6 -6.199999999999999 -0.6000000000000001
    endloop
  endfacet
  facet normal 1 0 0
    outer loop
      vertex -16.1 -6.199999999999999 -0.6000000000000001
      vertex -16.1 6.199999999999999 2.5
      vertex -16.1 -6.199999999999999 2.5
    endloop
  endfacet
  facet normal 0 1 0
    outer loop
      vertex -11.6 -6.199999999999999 -0.6000000000000001
      vertex -16.1 -6.199999999999999 2.5
      vertex 11.6 -6.199999999999999 -0.6000000000000001
    endloop
  endfacet
  facet normal 0 0 1
    outer loop
      vertex -16.1 -6.199999999999999 -0.6000000000000001
      vertex -11.6 6.199999999999999 -0.6000000000000001
      vertex -16.1 6.199999999999999 -0.6000000000000001
    endloop
  endfacet
  facet normal 1 0 0
    outer loop
      vertex -16.1 -6.199999999999999 -0.6000000000000001
      vertex -16.1 6.199999999999999 -0.6000000000000001
      vertex -16.1 6.199999999999999 2.5
    endloop
  endfacet
  facet normal 0 -1 0
    outer loop
      vertex -16.1 6.199999999999999 -0.6000000000000001
      vertex -11.6 6.199999999999999 -0.6000000000000001
      vertex 16.1 6.199999999999999 2.5
    endloop
  endfacet
  facet normal 0 -1 0
    outer loop
      vertex -16.1 6.199999999999999 -0.6000000000000001
      vertex 16.1 6.199999999999999 2.5
      vertex -16.1 6.199999999999999 2.5
    endloop
  endfacet
  facet normal 0 0 1
    outer loop
      vertex 11.6 -6.199999999999999 -0.6000000000000001
      vertex 16.1 -6.199999999999999 -0.6000000000000001
      vertex 16.1 6.199999999999999 -0.6000000000000001
    endloop
  endfacet
  facet normal 0 1 0
    outer loop
      vertex 11.6 -6.199999999999999 -0.6000000000000001
      vertex -16.1 -6.199999999999999 2.5
      vertex 16.1 -6.199999999999999 -0.6000000000000001
    endloop
  endfacet
  facet normal 0 1 0
    outer loop
      vertex 16.1 -6.199999999999999 -0.6000000000000001
      vertex -16.1 -6.199999999999999 2.5
      vertex 16.1 -6.199999999999999 2.5
    endloop
  endfacet
  facet normal -1 0 0
    outer loop
      vertex 16.1 -6.199999999999999 -0.6000000000000001
      vertex 16.1 -6.199999999999999 2.5
      vertex 16.1 6.199999999999999 -0.6000000000000001
    endloop
  endfacet
  facet normal 0 0 1
    outer loop
      vertex 11.6 -6.199999999999999 -0.6000000000000001
      vertex 16.1 6.199999999999999 -0.6000000000000001
      vertex 11.6 6.199999999999999 -0.6000000000000001
    endloop
  endfacet
  facet normal 0 -1 0
    outer loop
      vertex -11.6 6.199999999999999 -0.6000000000000001
      vertex 11.6 6.199999999999999 -0.6000000000000001
      vertex 16.1 6.199999999999999 2.5
    endloop
  endfacet
  facet normal 0 -1 0
    outer loop
      vertex 11.6 6.199999999999999 -0.6000000000000001
      vertex 16.1 6.199999999999999 -0.6000000000000001
      vertex 16.1 6.199999999999999 2.5
    endloop
  endfacet
  facet normal -1 0 0
    outer loop
      vertex 16.1 6.199999999999999 -0.6000000000000001
      vertex 16.1 -6.199999999999999 2.5
      vertex 16.1 6.199999999999999 2.5
    endloop
  endfacet
  facet normal 0 1 0
    outer loop
      vertex -11.6 -6.199999999999999 -0.6000000000000001
      vertex 11.6 -6.199999999999999 -2.5
      vertex -11.6 -6.199999999999999 -2.5
    endloop
  endfacet
  facet normal 1 0 0
    outer loop
      vertex -11.6 -6.199999999999999 -0.6000000000000001
      vertex -11.6 -6.199999999999999 -2.5
      vertex -11.6 6.199999999999999 -0.6000000000000001
    endloop
  endfacet
  facet normal 1 0 0
    outer loop
      vertex -11.6 6.199999999999999 -0.6000000000000001
      vertex -11.6 -6.199999999999999 -2.5
      vertex -11.6 6.199999999999999 -2.5
    endloop
  endfacet
  facet normal 0 -1 0
    outer loop
      vertex -11.6 6.199999999999999 -0.6000000000000001
      vertex -11.6 6.199999999999999 -2.5
      vertex 11.6 6.199999999999999 -0.6000000000000001
    endloop
  endfacet
  facet normal -1 0 0
    outer loop
      vertex 11.6 -6.199999999999999 -0.6000000000000001
      vertex 11.6 6.199999999999999 -2.5
      vertex 11.6 -6.199999999999999 -2.5
    endloop
  endfacet
  facet normal 0 1 0
    outer loop
      vertex -11.6 -6.199999999999999 -0.6000000000000001
      vertex 11.6 -6.199999999999999 -0.6000000000000001
      vertex 11.6 -6.199999999999999 -2.5
    endloop
  endfacet
  facet normal 0 -1 0
    outer loop
      vertex 11.6 6.199999999999999 -0.6000000000000001
      vertex -11.6 6.199999999999999 -2.5
      vertex 11.6 6.199999999999999 -2.5
    endloop
  endfacet
  facet normal -1 0 0
    outer loop
      vertex 11.6 -6.199999999999999 -0.6000000000000001
      vertex 11.6 6.199999999999999 -0.6000000000000001
      vertex 11.6 6.199999999999999 -2.5
    endloop
  endfacet
endsolid OpenSCAD_Model
